<svg version="1.1" xmlns="http://www.w3.org/2000/svg" viewBox="0 0 914.3981481127521 522.8439295544886" width="1828.7962962255042" height="1045.6878591089771"><!-- svg-source:excalidraw --><metadata></metadata><defs><style class="style-fonts">
      </style></defs><rect x="0" y="0" width="914.3981481127521" height="522.8439295544886" fill="#ffffff"></rect><g stroke-linecap="round" transform="translate(10 10) rotate(0 447.19907405637605 251.42196477724428)"><path d="M0 0 C0 0, 0 0, 0 0 M0 0 C0 0, 0 0, 0 0 M0.13 12.04 C2.73 9.74, 4.94 5.33, 10.63 -0.03 M0.13 12.04 C3.3 8.17, 6.72 4.62, 10.63 -0.03 M0.27 24.08 C5.63 18.03, 11.75 9.7, 21.26 -0.07 M0.27 24.08 C6.05 17.46, 10.33 12.91, 21.26 -0.07 M-0.26 36.88 C6.62 27.56, 17.5 18.66, 31.89 -0.1 M-0.26 36.88 C6.62 27.51, 13.65 20.58, 31.89 -0.1 M-0.12 48.92 C16.27 31.05, 35.12 8.95, 42.52 -0.14 M-0.12 48.92 C11.07 35.82, 21.11 24.99, 42.52 -0.14 M0.01 60.96 C20.82 39.44, 37.32 17.74, 53.15 -0.17 M0.01 60.96 C20.48 37.98, 41.39 14.21, 53.15 -0.17 M0.14 73 C17.09 53.79, 29.9 39.37, 63.78 -0.21 M0.14 73 C18.68 49.4, 38.26 27.43, 63.78 -0.21 M0.28 85.04 C17.63 67.5, 32.64 46.96, 74.41 -0.24 M0.28 85.04 C27.24 55.21, 52.92 25.28, 74.41 -0.24 M-0.25 97.84 C22.28 72.89, 42.16 48.31, 85.04 -0.28 M-0.25 97.84 C17.65 78.18, 35.46 55.36, 85.04 -0.28 M-0.11 109.88 C21.67 85.91, 38.14 63.21, 95.67 -0.31 M-0.11 109.88 C21.28 86.85, 41.31 65.42, 95.67 -0.31 M0.02 121.92 C36.46 77.52, 73.09 36.32, 106.3 -0.34 M0.02 121.92 C39.63 76.03, 78.84 31.43, 106.3 -0.34 M0.15 133.96 C29.75 95.16, 63.82 60.95, 116.27 0.38 M0.15 133.96 C34.73 96.78, 67.44 57.27, 116.27 0.38 M0.29 146 C39.2 97.83, 81.73 48.44, 126.91 0.34 M0.29 146 C31.1 109.88, 61.87 73.47, 126.91 0.34 M-0.24 158.8 C41.52 113.31, 82.24 66.79, 137.54 0.31 M-0.24 158.8 C33.38 121.78, 65.91 84.13, 137.54 0.31 M-0.1 170.84 C45.32 123.59, 85.3 75.19, 148.17 0.27 M-0.1 170.84 C43.13 122.43, 87.74 72.6, 148.17 0.27 M0.03 182.88 C55.56 117.85, 114.56 53.65, 158.8 0.24 M0.03 182.88 C49.67 124.7, 100.69 66.15, 158.8 0.24 M0.16 194.92 C44.6 145.89, 86.35 97.32, 169.43 0.2 M0.16 194.92 C38.88 150.52, 77.12 106.46, 169.43 0.2 M0.3 206.96 C38.92 163.41, 76.1 119.76, 180.06 0.17 M0.3 206.96 C60.99 136, 122.11 66.91, 180.06 0.17 M-0.23 219.75 C55.83 155.45, 113.77 89.33, 190.69 0.13 M-0.23 219.75 C68.37 142.57, 134.43 66.79, 190.69 0.13 M-0.09 231.8 C46.11 179.7, 92.75 127.09, 201.32 0.1 M-0.09 231.8 C65.05 157.05, 129.75 82.71, 201.32 0.1 M0.04 243.84 C55.15 178.12, 109.91 115.61, 211.95 0.06 M0.04 243.84 C52.15 186.06, 104.06 127.3, 211.95 0.06 M0.17 255.88 C60.38 185.8, 118.58 117.64, 222.58 0.03 M0.17 255.88 C50.94 200.86, 100.01 144.46, 222.58 0.03 M0.3 267.92 C50.72 212.48, 100.64 155.16, 233.21 0 M0.3 267.92 C57.38 201.18, 116.04 133.88, 233.21 0 M-0.22 280.71 C97.57 170.17, 194.28 58.02, 243.84 -0.04 M-0.22 280.71 C52.47 221.85, 104.87 161.25, 243.84 -0.04 M-0.08 292.75 C96.26 184.47, 189.8 75.4, 254.47 -0.07 M-0.08 292.75 C54.07 229.48, 107.69 166.46, 254.47 -0.07 M0.05 304.8 C97.82 193.86, 195.17 80.07, 265.1 -0.11 M0.05 304.8 C54.23 241.77, 109.6 178.34, 265.1 -0.11 M0.18 316.84 C59.54 248.96, 118.7 181.93, 275.73 -0.14 M0.18 316.84 C90.31 211.39, 181.66 107.41, 275.73 -0.14 M0.31 328.88 C98.54 213.9, 197.91 100.34, 286.36 -0.18 M0.31 328.88 C95.2 218.16, 190.35 109.18, 286.36 -0.18 M-0.21 341.67 C105.16 218.66, 212.11 97.62, 296.99 -0.21 M-0.21 341.67 C84.52 243.68, 170.65 145.1, 296.99 -0.21 M-0.08 353.71 C119.35 216.05, 240.16 77.26, 307.62 -0.25 M-0.08 353.71 C75.82 266.39, 151.95 178.41, 307.62 -0.25 M0.06 365.75 C86.04 264.44, 173.13 164.21, 318.25 -0.28 M0.06 365.75 C111.69 239.32, 222.32 112.44, 318.25 -0.28 M0.19 377.79 C115.46 246.88, 229.45 114.19, 328.88 -0.31 M0.19 377.79 C79.86 287.17, 158.97 195.91, 328.88 -0.31 M0.32 389.84 C129.05 241.46, 257.34 92.79, 339.51 -0.35 M0.32 389.84 C81.25 296.34, 162.18 203.02, 339.51 -0.35 M-0.2 402.63 C134.69 249.74, 267.07 96.58, 349.48 0.37 M-0.2 402.63 C114.47 272.71, 227.6 142.5, 349.48 0.37 M-0.07 414.67 C123.81 274.62, 246.53 133.61, 360.11 0.34 M-0.07 414.67 C101.75 299.07, 202.73 182.66, 360.11 0.34 M0.07 426.71 C88 326.46, 175.62 224.42, 370.74 0.3 M0.07 426.71 C122.68 284.76, 245.99 143.04, 370.74 0.3 M0.2 438.75 C140.34 277.41, 281.99 114.67, 381.37 0.27 M0.2 438.75 C101.17 324.4, 199.66 209.66, 381.37 0.27 M-0.32 451.55 C143.82 283.97, 289.52 116.82, 392 0.23 M-0.32 451.55 C90.71 344.8, 182.62 238.74, 392 0.23 M-0.19 463.59 C131.65 308.51, 266.04 154.47, 402.63 0.2 M-0.19 463.59 C137.97 305.96, 275.68 147.16, 402.63 0.2 M-0.06 475.63 C93.55 365.28, 187.88 257.42, 413.26 0.16 M-0.06 475.63 C90.39 370.97, 180.28 266.82, 413.26 0.16 M0.08 487.67 C101.85 372.76, 202.24 256.69, 423.89 0.13 M0.08 487.67 C157.38 306.15, 313.7 125.86, 423.89 0.13 M0.21 499.71 C156.92 319.17, 312.15 139.98, 434.52 0.1 M0.21 499.71 C88.28 397.74, 177.86 294.78, 434.52 0.1 M8.22 502.7 C159.48 328.8, 310.87 154.9, 445.15 0.06 M8.22 502.7 C165.43 321.73, 324.57 138.99, 445.15 0.06 M18.85 502.66 C154.35 347.59, 289.8 191.83, 455.78 0.03 M18.85 502.66 C165.6 331.41, 314.15 160.79, 455.78 0.03 M29.48 502.63 C144.82 371.92, 260.05 238.7, 466.41 -0.01 M29.48 502.63 C123.48 394.69, 218.18 285.78, 466.41 -0.01 M40.11 502.59 C183.24 338.48, 324.68 174.72, 477.04 -0.04 M40.11 502.59 C167.45 357.75, 294.57 211.43, 477.04 -0.04 M50.74 502.56 C160.15 376.97, 268.76 252.01, 487.67 -0.08 M50.74 502.56 C140.58 399.98, 228.58 298.38, 487.67 -0.08 M60.71 503.28 C168.5 379.77, 275.59 255.9, 498.3 -0.11 M60.71 503.28 C217.01 322.32, 374.6 141.12, 498.3 -0.11 M71.34 503.24 C205.86 350.52, 339.26 197.5, 508.93 -0.15 M71.34 503.24 C187.63 367.49, 305.92 232.47, 508.93 -0.15 M81.97 503.21 C176.85 395.85, 271.73 286.35, 519.56 -0.18 M81.97 503.21 C242.18 317.88, 402.55 133.86, 519.56 -0.18 M92.6 503.18 C218.72 357.66, 344.56 213.62, 530.19 -0.22 M92.6 503.18 C241.47 330.73, 390.94 158.65, 530.19 -0.22 M103.23 503.14 C267.29 313.68, 432.53 124.85, 540.82 -0.25 M103.23 503.14 C263.19 318.37, 422.94 133.58, 540.82 -0.25 M113.86 503.11 C285.78 302.3, 460.48 102.09, 551.45 -0.28 M113.86 503.11 C212.36 390.36, 309.95 277.79, 551.45 -0.28 M124.49 503.07 C284.09 319.76, 442.57 138.07, 562.08 -0.32 M124.49 503.07 C269.65 335.95, 415.93 168.19, 562.08 -0.32 M135.12 503.04 C257.74 361.69, 382.99 219.44, 572.71 -0.35 M135.12 503.04 C261.12 355.91, 388.23 209.34, 572.71 -0.35 M145.75 503 C235.96 396.91, 327.92 290.57, 582.69 0.37 M145.75 503 C265.23 363.22, 385.79 224.71, 582.69 0.37 M156.38 502.97 C309.42 330.02, 459.05 156.6, 593.32 0.33 M156.38 502.97 C331.62 303.64, 506.56 103.07, 593.32 0.33 M167.01 502.93 C278.94 369.61, 392.56 239.9, 603.95 0.3 M167.01 502.93 C306.49 340.75, 446.6 179.21, 603.95 0.3 M177.64 502.9 C276.77 387.27, 377.85 271.39, 614.58 0.26 M177.64 502.9 C345.57 311, 511.93 119.83, 614.58 0.26 M188.27 502.87 C293.36 380.7, 400.77 257.55, 625.21 0.23 M188.27 502.87 C288.86 387.67, 387.65 272.94, 625.21 0.23 M198.9 502.83 C342.46 336.34, 488.59 169.28, 635.84 0.19 M198.9 502.83 C347.6 331.36, 497.85 158.66, 635.84 0.19 M209.53 502.8 C380.25 304.64, 552.01 107.44, 646.47 0.16 M209.53 502.8 C328.61 364.24, 450.43 224.8, 646.47 0.16 M220.16 502.76 C350.96 353.92, 480.12 204.3, 657.1 0.13 M220.16 502.76 C383.72 315.66, 545.37 129.15, 657.1 0.13 M230.79 502.73 C377.71 335.1, 524.31 167.42, 667.73 0.09 M230.79 502.73 C397.58 310.44, 564.98 117.69, 667.73 0.09 M241.42 502.69 C379.26 343.05, 517.81 183.16, 678.36 0.06 M241.42 502.69 C338.78 388.92, 437.26 275.78, 678.36 0.06 M252.05 502.66 C341.85 398.88, 431.15 296.79, 688.99 0.02 M252.05 502.66 C417.25 312.46, 583.91 120.6, 688.99 0.02 M262.68 502.62 C364.86 385.15, 465.54 269.66, 699.62 -0.01 M262.68 502.62 C369.05 380.19, 475.84 256.98, 699.62 -0.01 M273.31 502.59 C416.24 337.01, 558.12 172.91, 710.25 -0.05 M273.31 502.59 C419.56 334.08, 566.3 165.31, 710.25 -0.05 M283.94 502.56 C386.34 384.72, 488.14 267.93, 720.88 -0.08 M283.94 502.56 C387.87 380.23, 492.77 259.06, 720.88 -0.08 M293.92 503.28 C435.28 341.01, 578.16 176.42, 731.51 -0.12 M293.92 503.28 C396.09 383.18, 498.29 264.96, 731.51 -0.12 M304.55 503.24 C459.34 326.47, 614.67 149.86, 742.14 -0.15 M304.55 503.24 C397.47 396.77, 488.5 292.14, 742.14 -0.15 M315.18 503.21 C416.69 386.97, 517.29 270.25, 752.77 -0.19 M315.18 503.21 C443.15 353.66, 572.78 204.36, 752.77 -0.19 M325.81 503.17 C491.75 309.73, 660.25 116.72, 763.4 -0.22 M325.81 503.17 C420.05 394.77, 512.7 288.62, 763.4 -0.22 M336.44 503.14 C494.1 320.22, 651.57 140.77, 774.03 -0.25 M336.44 503.14 C451.22 369.49, 567.26 236.56, 774.03 -0.25 M347.07 503.1 C503.17 325.82, 658.92 146.26, 784.66 -0.29 M347.07 503.1 C477.55 352.73, 606.76 203.81, 784.66 -0.29 M357.7 503.07 C461.21 385.55, 564.15 266.71, 795.29 -0.32 M357.7 503.07 C490.04 349.99, 624.33 196.11, 795.29 -0.32 M368.33 503.03 C480.79 374.68, 592.34 246.52, 805.92 -0.36 M368.33 503.03 C534.6 310.14, 701.63 118.61, 805.92 -0.36 M378.96 503 C500.93 364.79, 621.56 224.96, 815.89 0.36 M378.96 503 C518.57 342.26, 658.54 181.41, 815.89 0.36 M389.59 502.96 C523.96 346.5, 659.29 191.38, 826.52 0.33 M389.59 502.96 C548.75 320.16, 708.48 136.21, 826.52 0.33 M400.22 502.93 C533.33 348.6, 667.59 195.92, 837.15 0.29 M400.22 502.93 C501.06 388.24, 600.65 272.96, 837.15 0.29 M410.85 502.9 C542.42 351.46, 674.71 198.53, 847.78 0.26 M410.85 502.9 C509.72 392.41, 605.94 281.41, 847.78 0.26 M421.48 502.86 C525.43 383, 628.78 265.07, 858.41 0.22 M421.48 502.86 C544.85 362.51, 667.59 221.85, 858.41 0.22 M432.11 502.83 C546.43 370.04, 660.23 239.99, 869.04 0.19 M432.11 502.83 C563.91 353.26, 694.86 202.4, 869.04 0.19 M442.74 502.79 C608.7 311.92, 774.8 120.53, 879.67 0.16 M442.74 502.79 C598.58 324.57, 753.16 147.39, 879.67 0.16 M453.37 502.76 C610.58 320.14, 767.98 139.56, 890.3 0.12 M453.37 502.76 C552.59 387.55, 651.32 273, 890.3 0.12 M464 502.72 C616.76 325.01, 770 148.45, 895.03 6.88 M464 502.72 C568.7 380.92, 675.69 258.27, 895.03 6.88 M474.63 502.69 C572.35 392.38, 667.89 282.12, 895.16 18.92 M474.63 502.69 C560.18 403.6, 647.26 303.58, 895.16 18.92 M485.26 502.65 C640.36 324.8, 792.16 149.27, 895.3 30.96 M485.26 502.65 C645.43 315.71, 807.25 129.55, 895.3 30.96 M495.89 502.62 C590.6 394.5, 685.56 285.26, 895.43 43 M495.89 502.62 C623.6 355.51, 751.06 208.69, 895.43 43 M506.52 502.59 C639.03 350.1, 771.31 197.6, 894.91 55.8 M506.52 502.59 C639.77 347.06, 775.23 191.45, 894.91 55.8 M517.15 502.55 C596.85 412.13, 675.34 321.32, 895.04 67.84 M517.15 502.55 C600.9 407.15, 684.15 311.11, 895.04 67.84 M527.12 503.27 C663.88 344.03, 801.25 187.22, 895.17 79.88 M527.12 503.27 C635.04 379.83, 741.42 256.76, 895.17 79.88 M537.75 503.24 C649.13 375.93, 760.9 247.23, 895.3 91.92 M537.75 503.24 C624.07 404.22, 711.62 303.52, 895.3 91.92 M548.38 503.2 C640.63 396.12, 734.8 287.96, 895.44 103.96 M548.38 503.2 C663.18 371.87, 778.3 238.8, 895.44 103.96 M559.01 503.17 C684.03 361.44, 808.8 219.02, 894.92 116.76 M559.01 503.17 C659.05 389, 758.76 273.94, 894.92 116.76 M569.64 503.13 C648.22 412.79, 727.7 322.88, 895.05 128.8 M569.64 503.13 C636.14 425.24, 703.58 347.77, 895.05 128.8 M580.27 503.1 C687.48 377.44, 797.89 251.91, 895.18 140.84 M580.27 503.1 C697.59 370.16, 814.57 236.36, 895.18 140.84 M590.9 503.06 C710.71 366.29, 828.85 228.41, 895.31 152.88 M590.9 503.06 C704.97 370.72, 819.89 238.58, 895.31 152.88 M601.53 503.03 C678.34 416.99, 755.62 328.64, 895.45 164.92 M601.53 503.03 C666.95 428.22, 732.02 352.86, 895.45 164.92 M612.16 503 C676.79 432.19, 738.45 357.98, 894.92 177.72 M612.16 503 C705.76 394.91, 799.37 287.28, 894.92 177.72 M622.79 502.96 C696.64 416.29, 770.85 332.96, 895.06 189.76 M622.79 502.96 C702.54 409.72, 782.04 316.96, 895.06 189.76 M633.42 502.93 C723.29 402.4, 810.06 300.69, 895.19 201.8 M633.42 502.93 C709.53 418.43, 785.16 331.86, 895.19 201.8 M644.05 502.89 C742.13 388.61, 842.61 272.8, 895.32 213.84 M644.05 502.89 C693.36 443.02, 744.34 385.5, 895.32 213.84 M654.68 502.86 C735.48 411.59, 814.25 321.25, 895.46 225.88 M654.68 502.86 C721.01 424.39, 788.13 346.68, 895.46 225.88 M665.31 502.82 C754.44 399.91, 845.12 295.42, 894.93 238.67 M665.31 502.82 C718.07 439.62, 772.54 377.86, 894.93 238.67 M675.94 502.79 C743.16 428, 805.88 353.05, 895.07 250.72 M675.94 502.79 C739.31 432.82, 802.41 360.81, 895.07 250.72 M686.57 502.75 C745.02 436.17, 804.13 371.48, 895.2 262.76 M686.57 502.75 C743.53 438.53, 799.53 374.47, 895.2 262.76 M697.2 502.72 C765.08 424.37, 833.45 346.24, 895.33 274.8 M697.2 502.72 C754.53 436.68, 811.94 369.6, 895.33 274.8 M707.83 502.68 C781.81 417.23, 856.97 331.65, 895.47 286.84 M707.83 502.68 C753.58 450.43, 799.54 398.69, 895.47 286.84 M718.46 502.65 C765.65 450.8, 812.06 398.18, 894.94 299.63 M718.46 502.65 C757.76 457.72, 796.64 412.48, 894.94 299.63 M729.09 502.62 C790.18 433.71, 853.82 362.22, 895.08 311.67 M729.09 502.62 C774.89 447.48, 820.88 394.59, 895.08 311.67 M739.72 502.58 C776.51 461.02, 814.32 418.29, 895.21 323.72 M739.72 502.58 C775.43 460.03, 810.76 420.33, 895.21 323.72 M750.35 502.55 C801.35 446.28, 847.84 390.48, 895.34 335.76 M750.35 502.55 C804.94 438.43, 861.71 374.08, 895.34 335.76 M760.33 503.27 C810.22 444.05, 859.43 387.47, 894.82 348.55 M760.33 503.27 C810.87 443.64, 862.96 383.8, 894.82 348.55 M770.96 503.23 C812.42 460.43, 851.05 413.2, 894.95 360.59 M770.96 503.23 C811.54 457.28, 851.2 411.34, 894.95 360.59 M781.59 503.2 C820.24 458.31, 856.8 414.54, 895.09 372.63 M781.59 503.2 C824.89 451.73, 869.53 402.48, 895.09 372.63 M792.22 503.16 C819.38 472.93, 844.86 443.45, 895.22 384.67 M792.22 503.16 C827.79 460.55, 864.55 419.14, 895.22 384.67 M802.85 503.13 C836.21 465.3, 867.96 428.84, 895.35 396.71 M802.85 503.13 C826.71 474.24, 852.42 448.08, 895.35 396.71 M813.48 503.09 C840.9 471.98, 870.25 439.74, 894.83 409.51 M813.48 503.09 C838.56 474.62, 864.06 445.7, 894.83 409.51 M824.11 503.06 C851 470.28, 877.89 439.77, 894.96 421.55 M824.11 503.06 C844.33 481.76, 862.98 458.12, 894.96 421.55 M834.74 503.03 C854.94 480.55, 875.24 454.49, 895.1 433.59 M834.74 503.03 C849.93 483.73, 867.46 463.93, 895.1 433.59 M845.37 502.99 C862.02 484.86, 875.87 467.81, 895.23 445.63 M845.37 502.99 C865.26 480.36, 883.75 459.06, 895.23 445.63 M856 502.96 C865.05 491.12, 874.85 479.58, 895.36 457.67 M856 502.96 C869.59 486.05, 884.13 470.2, 895.36 457.67 M866.63 502.92 C872.81 496.68, 878.83 489.75, 894.84 470.47 M866.63 502.92 C872.53 495.66, 879.6 487.64, 894.84 470.47 M877.26 502.89 C885.93 494.69, 892.83 486.91, 894.97 482.51 M877.26 502.89 C882.09 496.68, 888.08 491.96, 894.97 482.51 M887.89 502.85 C891.21 499.13, 893.45 498.16, 895.11 494.55 M887.89 502.85 C889.67 500, 892.61 497.66, 895.11 494.55" stroke="#a5d8ff" stroke-width="1" fill="none"></path><path d="M0 0 C193.09 2.49, 385.45 2.13, 894.4 0 M0 0 C193.08 -0.39, 387.15 0.06, 894.4 0 M894.4 0 C895.42 152.19, 895.59 306.07, 894.4 502.84 M894.4 0 C894.98 134.82, 895.08 269.15, 894.4 502.84 M894.4 502.84 C689.43 503.13, 484.29 503.1, 0 502.84 M894.4 502.84 C642.48 504.89, 390.94 504.77, 0 502.84 M0 502.84 C-1.99 384.11, -1.8 265.32, 0 0 M0 502.84 C0.75 337.19, 0.15 172.11, 0 0" stroke="transparent" stroke-width="2" fill="none"></path></g></svg>