<svg version="1.1" xmlns="http://www.w3.org/2000/svg" viewBox="0 0 914.3981481127521 522.8439295544886" width="1828.7962962255042" height="1045.6878591089771"><!-- svg-source:excalidraw --><metadata></metadata><defs><style class="style-fonts">
      </style></defs><rect x="0" y="0" width="914.3981481127521" height="522.8439295544886" fill="#ffffff"></rect><g stroke-linecap="round" transform="translate(10 10) rotate(0 447.19907405637605 251.42196477724428)"><path d="M0 0 C0 0, 0 0, 0 0 M0 0 C0 0, 0 0, 0 0 M0.13 12.04 C4.3 6.27, 8 1.84, 10.63 -0.03 M0.13 12.04 C3.98 7.68, 7.3 4.77, 10.63 -0.03 M0.27 24.08 C7.5 15.11, 12.72 7.28, 21.26 -0.07 M0.27 24.08 C7.33 14.43, 16.35 5.72, 21.26 -0.07 M-0.26 36.88 C9.78 24.55, 20.06 15.51, 31.89 -0.1 M-0.26 36.88 C8.85 24.33, 19.33 12.95, 31.89 -0.1 M-0.12 48.92 C11.95 37.47, 20.18 25.51, 42.52 -0.14 M-0.12 48.92 C9.96 36.3, 20.89 23.89, 42.52 -0.14 M0.01 60.96 C16.86 40.34, 33.37 22.28, 53.15 -0.17 M0.01 60.96 C18.76 38.33, 38.7 17.05, 53.15 -0.17 M0.14 73 C22.01 45.17, 47.32 20.98, 63.78 -0.21 M0.14 73 C14.97 56.73, 27.8 42.19, 63.78 -0.21 M0.28 85.04 C17.54 66.43, 29.77 50.05, 74.41 -0.24 M0.28 85.04 C19.82 61.13, 40.43 37.42, 74.41 -0.24 M-0.25 97.84 C28.63 64.24, 59.58 31.33, 85.04 -0.28 M-0.25 97.84 C16.43 76.62, 35.63 56.64, 85.04 -0.28 M-0.11 109.88 C34.9 71.82, 67.09 33.12, 95.67 -0.31 M-0.11 109.88 C36.44 64.79, 75.98 21.31, 95.67 -0.31 M0.02 121.92 C38.01 82.57, 71.73 38.68, 106.3 -0.34 M0.02 121.92 C40.84 76.15, 82.99 28.8, 106.3 -0.34 M0.15 133.96 C36.73 93.61, 71.77 51.07, 116.27 0.38 M0.15 133.96 C29.33 102.17, 57.14 69.19, 116.27 0.38 M0.29 146 C51.15 90.54, 99.93 37.84, 126.91 0.34 M0.29 146 C28.52 113.41, 54.83 82.47, 126.91 0.34 M-0.24 158.8 C47.2 105.86, 90.59 52.44, 137.54 0.31 M-0.24 158.8 C35.56 116.31, 70.66 75.56, 137.54 0.31 M-0.1 170.84 C47.46 117.69, 90.44 66.45, 148.17 0.27 M-0.1 170.84 C50.32 114.69, 98.04 59.11, 148.17 0.27 M0.03 182.88 C47.95 128.35, 96.66 74.33, 158.8 0.24 M0.03 182.88 C41.68 135.32, 84.12 88.14, 158.8 0.24 M0.16 194.92 C38.78 146.36, 80.43 99.13, 169.43 0.2 M0.16 194.92 C54.08 136.5, 106.26 77.06, 169.43 0.2 M0.3 206.96 C60.1 136.9, 121.31 68.97, 180.06 0.17 M0.3 206.96 C36.65 166.23, 73.78 124.75, 180.06 0.17 M-0.23 219.75 C64.4 148.47, 126.42 75.59, 190.69 0.13 M-0.23 219.75 C54.38 156.45, 107.44 94.89, 190.69 0.13 M-0.09 231.8 C47.07 180.59, 92.92 127.17, 201.32 0.1 M-0.09 231.8 C76.25 144.05, 153.12 54.42, 201.32 0.1 M0.04 243.84 C81.82 149.53, 161.56 56.7, 211.95 0.06 M0.04 243.84 C69.61 163.51, 140.81 81.43, 211.95 0.06 M0.17 255.88 C45.74 203.12, 90.71 150.09, 222.58 0.03 M0.17 255.88 C58 188.85, 116.43 120.82, 222.58 0.03 M0.3 267.92 C61.52 199.46, 120.95 132.63, 233.21 0 M0.3 267.92 C67.81 189.13, 136.77 110.74, 233.21 0 M-0.22 280.71 C85.18 184.86, 169.85 85.17, 243.84 -0.04 M-0.22 280.71 C60.01 211.65, 120.13 141.66, 243.84 -0.04 M-0.08 292.75 C64.46 218.5, 129.93 143.96, 254.47 -0.07 M-0.08 292.75 C86.83 192.19, 173.42 91.62, 254.47 -0.07 M0.05 304.8 C105.12 185.34, 209.56 66.18, 265.1 -0.11 M0.05 304.8 C78.43 215.95, 155.84 126.97, 265.1 -0.11 M0.18 316.84 C93.99 207.31, 188.26 100.63, 275.73 -0.14 M0.18 316.84 C57.02 250.01, 114.24 184.75, 275.73 -0.14 M0.31 328.88 C92.48 222.8, 185.53 117.11, 286.36 -0.18 M0.31 328.88 C86.23 231.71, 171.05 133.44, 286.36 -0.18 M-0.21 341.67 C93.81 233.87, 186.54 125.17, 296.99 -0.21 M-0.21 341.67 C108.39 215.03, 218.31 88.04, 296.99 -0.21 M-0.08 353.71 C111.88 227.43, 222.77 98.87, 307.62 -0.25 M-0.08 353.71 C98.56 239.83, 198.98 123.86, 307.62 -0.25 M0.06 365.75 C77.85 276.85, 153.82 189.47, 318.25 -0.28 M0.06 365.75 C83.25 269.36, 167.26 172.88, 318.25 -0.28 M0.19 377.79 C129.72 228.29, 260.05 76.94, 328.88 -0.31 M0.19 377.79 C123.65 233.85, 248.36 90.62, 328.88 -0.31 M0.32 389.84 C73.62 304.48, 148.91 217.69, 339.51 -0.35 M0.32 389.84 C89.51 285.97, 180.03 182.34, 339.51 -0.35 M-0.2 402.63 C126.98 257.54, 252.81 112.01, 349.48 0.37 M-0.2 402.63 C74.87 315.44, 149.71 230.01, 349.48 0.37 M-0.07 414.67 C77.73 325.42, 155.1 237.12, 360.11 0.34 M-0.07 414.67 C109.98 286.76, 221.25 158.55, 360.11 0.34 M0.07 426.71 C89.04 325.37, 177.06 225.47, 370.74 0.3 M0.07 426.71 C122.99 285.13, 247.27 142.25, 370.74 0.3 M0.2 438.75 C87.22 338.72, 174.78 237.76, 381.37 0.27 M0.2 438.75 C102.4 319.06, 206.3 199.25, 381.37 0.27 M-0.32 451.55 C100.14 334.66, 199.42 220.15, 392 0.23 M-0.32 451.55 C154.81 273.41, 311.08 93.71, 392 0.23 M-0.19 463.59 C128.95 315.65, 257.8 167.4, 402.63 0.2 M-0.19 463.59 C153.79 285.93, 309.23 107.24, 402.63 0.2 M-0.06 475.63 C120.56 335.71, 243.54 195.42, 413.26 0.16 M-0.06 475.63 C86.66 375.48, 172.82 276.18, 413.26 0.16 M0.08 487.67 C166.77 293.95, 333.36 100.49, 423.89 0.13 M0.08 487.67 C99.73 374.26, 197.7 261.11, 423.89 0.13 M0.21 499.71 C128.89 353.85, 257.16 206.81, 434.52 0.1 M0.21 499.71 C140.75 339.54, 280.14 179.28, 434.52 0.1 M8.22 502.7 C103.08 394.58, 195.04 288.22, 445.15 0.06 M8.22 502.7 C156.11 333.04, 304.05 162.41, 445.15 0.06 M18.85 502.66 C116.45 387.06, 216.66 272.76, 455.78 0.03 M18.85 502.66 C124.81 381.88, 230.93 260.02, 455.78 0.03 M29.48 502.63 C195.95 313.45, 360.12 124.92, 466.41 -0.01 M29.48 502.63 C197.75 306.74, 368.25 111.67, 466.41 -0.01 M40.11 502.59 C185.92 332.87, 332.58 163.77, 477.04 -0.04 M40.11 502.59 C140.56 387.59, 240.01 272.42, 477.04 -0.04 M50.74 502.56 C200.92 328.59, 352.29 155.34, 487.67 -0.08 M50.74 502.56 C141.94 395.78, 234.03 289.54, 487.67 -0.08 M60.71 503.28 C189.07 356.53, 317.31 208.42, 498.3 -0.11 M60.71 503.28 C183.49 362.4, 307 219.98, 498.3 -0.11 M71.34 503.24 C171.21 389.28, 270.28 274.62, 508.93 -0.15 M71.34 503.24 C241.68 308.1, 410.59 112.78, 508.93 -0.15 M81.97 503.21 C186.13 384.33, 290.15 263.72, 519.56 -0.18 M81.97 503.21 C241.78 321.7, 401 139.37, 519.56 -0.18 M92.6 503.18 C257.83 313.64, 422.72 123.04, 530.19 -0.22 M92.6 503.18 C198.5 380.11, 307.03 255.93, 530.19 -0.22 M103.23 503.14 C256.14 328.85, 407.01 154.97, 540.82 -0.25 M103.23 503.14 C265.69 314.72, 428.54 127.29, 540.82 -0.25 M113.86 503.11 C201.02 398.72, 290.76 297.28, 551.45 -0.28 M113.86 503.11 C234 365.72, 352.8 229.37, 551.45 -0.28 M124.49 503.07 C234.49 374.76, 345.68 245.45, 562.08 -0.32 M124.49 503.07 C287.72 318.74, 448.72 133.23, 562.08 -0.32 M135.12 503.04 C294.64 318.39, 452.82 135.46, 572.71 -0.35 M135.12 503.04 C262.49 359.31, 388.74 212.93, 572.71 -0.35 M145.75 503 C253.54 379.82, 360.36 257.37, 582.69 0.37 M145.75 503 C302.19 323.96, 457.09 145.8, 582.69 0.37 M156.38 502.97 C314.44 321.98, 472.06 138.36, 593.32 0.33 M156.38 502.97 C281.48 359.66, 405.95 217.94, 593.32 0.33 M167.01 502.93 C272.61 378.57, 377.94 257.28, 603.95 0.3 M167.01 502.93 C294.33 356.08, 420.62 211.02, 603.95 0.3 M177.64 502.9 C337.19 323.35, 494.64 141.63, 614.58 0.26 M177.64 502.9 C345.72 310.05, 512.46 117.74, 614.58 0.26 M188.27 502.87 C290.78 381.75, 396.1 261.75, 625.21 0.23 M188.27 502.87 C307.74 364.2, 427.06 226.16, 625.21 0.23 M198.9 502.83 C357.8 319.21, 515.33 136.92, 635.84 0.19 M198.9 502.83 C315.22 369.16, 432.37 234.34, 635.84 0.19 M209.53 502.8 C321.67 369.77, 436.24 238.12, 646.47 0.16 M209.53 502.8 C371.7 317.86, 532.2 132.98, 646.47 0.16 M220.16 502.76 C318.58 389.51, 415.75 275.84, 657.1 0.13 M220.16 502.76 C383.46 314.9, 545.56 128.58, 657.1 0.13 M230.79 502.73 C402.16 304.18, 574.48 106.47, 667.73 0.09 M230.79 502.73 C394.93 315.32, 558.09 126.82, 667.73 0.09 M241.42 502.69 C355.02 373.85, 467.36 245.07, 678.36 0.06 M241.42 502.69 C359.7 365.95, 477.07 230.91, 678.36 0.06 M252.05 502.66 C408.76 320.04, 568.86 136.38, 688.99 0.02 M252.05 502.66 C359.81 378.53, 468.33 252.92, 688.99 0.02 M262.68 502.62 C356.46 396.4, 450.32 289.1, 699.62 -0.01 M262.68 502.62 C394.53 354.2, 524.2 204.83, 699.62 -0.01 M273.31 502.59 C428.89 322.86, 586.52 143.25, 710.25 -0.05 M273.31 502.59 C403.18 351.49, 533.15 201.82, 710.25 -0.05 M283.94 502.56 C415.1 349.58, 547.5 197.69, 720.88 -0.08 M283.94 502.56 C429.1 336.03, 574.15 169.27, 720.88 -0.08 M293.92 503.28 C385.05 397.11, 475.32 294.02, 731.51 -0.12 M293.92 503.28 C457.67 314.13, 622.16 125.13, 731.51 -0.12 M304.55 503.24 C473.65 312.2, 639.59 119.42, 742.14 -0.15 M304.55 503.24 C395.02 401.68, 484.5 298.86, 742.14 -0.15 M315.18 503.21 C486.04 305.42, 657.91 107.42, 752.77 -0.19 M315.18 503.21 C440.83 358.73, 567.27 212.85, 752.77 -0.19 M325.81 503.17 C483.16 323.99, 639.9 144.36, 763.4 -0.22 M325.81 503.17 C454.6 353.59, 584.3 204.31, 763.4 -0.22 M336.44 503.14 C444.81 380.11, 553.79 256.33, 774.03 -0.25 M336.44 503.14 C506.34 306.47, 678.6 108.66, 774.03 -0.25 M347.07 503.1 C515.43 308.49, 684.56 114.96, 784.66 -0.29 M347.07 503.1 C496.47 332.92, 644.35 163.15, 784.66 -0.29 M357.7 503.07 C509.44 326.49, 662.73 149.68, 795.29 -0.32 M357.7 503.07 C527.9 303.93, 700.07 106.73, 795.29 -0.32 M368.33 503.03 C487.77 364.4, 606.6 225.25, 805.92 -0.36 M368.33 503.03 C458.47 398.54, 550.08 292.88, 805.92 -0.36 M378.96 503 C525.57 331.39, 674.12 161.19, 815.89 0.36 M378.96 503 C527.35 329.47, 677.47 157.06, 815.89 0.36 M389.59 502.96 C512.42 362.35, 635.59 221.3, 826.52 0.33 M389.59 502.96 C537.39 331.76, 686.32 160.09, 826.52 0.33 M400.22 502.93 C526.58 357.62, 654.73 211.63, 837.15 0.29 M400.22 502.93 C510.99 375.13, 620.7 249.25, 837.15 0.29 M410.85 502.9 C547.14 343.95, 684.35 187.71, 847.78 0.26 M410.85 502.9 C549.07 344.05, 686.51 186.22, 847.78 0.26 M421.48 502.86 C570.77 329.28, 718.9 158.79, 858.41 0.22 M421.48 502.86 C541.87 366.93, 660.37 230.75, 858.41 0.22 M432.11 502.83 C574.94 336.85, 717.12 173.75, 869.04 0.19 M432.11 502.83 C542.94 373.39, 656.03 243.91, 869.04 0.19 M442.74 502.79 C559.53 366.32, 676.18 230.39, 879.67 0.16 M442.74 502.79 C578.04 347.23, 712.36 192.36, 879.67 0.16 M453.37 502.76 C599.02 339.08, 741.98 173.7, 890.3 0.12 M453.37 502.76 C562.8 375.33, 673.75 247.55, 890.3 0.12 M464 502.72 C596.86 348.86, 730.35 195.02, 895.03 6.88 M464 502.72 C559.28 395.36, 654.27 286.03, 895.03 6.88 M474.63 502.69 C633.24 320, 790.15 138.33, 895.16 18.92 M474.63 502.69 C613.88 342.82, 753.47 181.97, 895.16 18.92 M485.26 502.65 C623.84 341.55, 764.21 180.7, 895.3 30.96 M485.26 502.65 C570.64 405.4, 656.69 306.29, 895.3 30.96 M495.89 502.62 C644.54 328.88, 794.16 156.78, 895.43 43 M495.89 502.62 C606.05 378.37, 715.18 253.04, 895.43 43 M506.52 502.59 C622.18 368.62, 737.56 233.7, 894.91 55.8 M506.52 502.59 C597.56 398.33, 688.79 294.65, 894.91 55.8 M517.15 502.55 C624.2 378.06, 731.95 254.93, 895.04 67.84 M517.15 502.55 C593.94 411.55, 671.68 322.47, 895.04 67.84 M527.12 503.27 C663.06 350.92, 795.68 196.29, 895.17 79.88 M527.12 503.27 C671.69 334.81, 817.63 166.78, 895.17 79.88 M537.75 503.24 C650.06 375.88, 761.81 247, 895.3 91.92 M537.75 503.24 C614.81 414.93, 691.34 327.29, 895.3 91.92 M548.38 503.2 C674.23 357.62, 802.5 211.35, 895.44 103.96 M548.38 503.2 C673.11 362, 796.79 219.71, 895.44 103.96 M559.01 503.17 C662.83 382.08, 768.39 262.02, 894.92 116.76 M559.01 503.17 C669.23 376.14, 778.02 251.07, 894.92 116.76 M569.64 503.13 C697.87 356.91, 824.5 210.13, 895.05 128.8 M569.64 503.13 C671.28 385.72, 773.86 267.52, 895.05 128.8 M580.27 503.1 C705.19 359.78, 830.66 216.74, 895.18 140.84 M580.27 503.1 C680.52 386.07, 782.14 269.77, 895.18 140.84 M590.9 503.06 C704.03 373.79, 815.07 245.58, 895.31 152.88 M590.9 503.06 C662.07 423.36, 732.27 342.88, 895.31 152.88 M601.53 503.03 C694.08 397.39, 785.38 290.74, 895.45 164.92 M601.53 503.03 C698.15 389.39, 795.08 277.53, 895.45 164.92 M612.16 503 C693.06 410.05, 772.62 318.68, 894.92 177.72 M612.16 503 C671.41 434.59, 729.13 367.59, 894.92 177.72 M622.79 502.96 C700.85 417.44, 776.09 330, 895.06 189.76 M622.79 502.96 C687.68 427.88, 752.12 353.23, 895.06 189.76 M633.42 502.93 C729.3 393.31, 823.14 285.48, 895.19 201.8 M633.42 502.93 C711.98 411.09, 790.97 319.71, 895.19 201.8 M644.05 502.89 C730.95 403.84, 818.98 302.28, 895.32 213.84 M644.05 502.89 C713.04 423.32, 781.28 345.03, 895.32 213.84 M654.68 502.86 C723.9 420.73, 795.07 341.29, 895.46 225.88 M654.68 502.86 C732.82 414.28, 809.21 326.67, 895.46 225.88 M665.31 502.82 C716.49 444.68, 767.46 388.03, 894.93 238.67 M665.31 502.82 C715.23 445.61, 763.37 390.82, 894.93 238.67 M675.94 502.79 C721.02 451.14, 763.96 400.21, 895.07 250.72 M675.94 502.79 C722.66 450.16, 768.34 397, 895.07 250.72 M686.57 502.75 C741.35 441.39, 797.54 378.31, 895.2 262.76 M686.57 502.75 C767.43 411.92, 847.78 318.74, 895.2 262.76 M697.2 502.72 C753.21 440.69, 807.95 377.37, 895.33 274.8 M697.2 502.72 C755.8 435.89, 812.47 370.24, 895.33 274.8 M707.83 502.68 C759.78 445.4, 811.46 385.86, 895.47 286.84 M707.83 502.68 C759.16 442.44, 811.29 382.76, 895.47 286.84 M718.46 502.65 C779.69 432.64, 840.82 362.42, 894.94 299.63 M718.46 502.65 C754.5 462.31, 790.92 419.77, 894.94 299.63 M729.09 502.62 C779.73 440.43, 834.4 378.62, 895.08 311.67 M729.09 502.62 C781.51 441.55, 834.1 380.42, 895.08 311.67 M739.72 502.58 C783.49 449.97, 831.44 398.4, 895.21 323.72 M739.72 502.58 C795.76 438.93, 852.59 372.11, 895.21 323.72 M750.35 502.55 C796.23 452.1, 837.13 402.32, 895.34 335.76 M750.35 502.55 C791.71 453.08, 834.09 405.82, 895.34 335.76 M760.33 503.27 C792.97 463.88, 827.22 427, 894.82 348.55 M760.33 503.27 C803.1 452.16, 846.95 402.46, 894.82 348.55 M770.96 503.23 C819.14 448.75, 866.84 394.76, 894.95 360.59 M770.96 503.23 C810.75 459.6, 849.01 412.85, 894.95 360.59 M781.59 503.2 C826.49 452.67, 869.96 399.09, 895.09 372.63 M781.59 503.2 C827.11 452.64, 871.71 400.19, 895.09 372.63 M792.22 503.16 C828.96 460.7, 864.45 419, 895.22 384.67 M792.22 503.16 C822.05 470.18, 851.67 434.8, 895.22 384.67 M802.85 503.13 C837.26 465.62, 871.46 424.07, 895.35 396.71 M802.85 503.13 C821.44 479.42, 841.78 456.32, 895.35 396.71 M813.48 503.09 C839.61 475.87, 862.62 450.27, 894.83 409.51 M813.48 503.09 C832.36 483.2, 850.82 461.32, 894.83 409.51 M824.11 503.06 C843.63 483.16, 859.49 462.67, 894.96 421.55 M824.11 503.06 C840.32 486.43, 855.05 468.61, 894.96 421.55 M834.74 503.03 C851.51 483.75, 867.8 462.55, 895.1 433.59 M834.74 503.03 C853.21 481.72, 870.91 460.61, 895.1 433.59 M845.37 502.99 C862.74 484, 878.67 462.7, 895.23 445.63 M845.37 502.99 C861.2 484.33, 878.2 464.35, 895.23 445.63 M856 502.96 C869 490.01, 882.82 475.97, 895.36 457.67 M856 502.96 C865.95 489.46, 876.77 477.92, 895.36 457.67 M866.63 502.92 C874.57 491.78, 882.03 482.87, 894.84 470.47 M866.63 502.92 C874.75 493.55, 881.19 485.19, 894.84 470.47 M877.26 502.89 C884.68 495.47, 891.26 488.59, 894.97 482.51 M877.26 502.89 C880.06 497.87, 884.49 494.77, 894.97 482.51 M887.89 502.85 C890.42 501.12, 891.6 498.2, 895.11 494.55 M887.89 502.85 C890.23 500.82, 892.28 497.57, 895.11 494.55" stroke="#b2f2bb" stroke-width="1" fill="none"></path><path d="M0 0 C244.93 1.52, 490.38 1.43, 894.4 0 M0 0 C182.49 0.08, 364.91 -0.5, 894.4 0 M894.4 0 C894.11 107.55, 893.74 216.38, 894.4 502.84 M894.4 0 C893.3 190.1, 892.64 379.95, 894.4 502.84 M894.4 502.84 C645.93 504.56, 396.77 503.87, 0 502.84 M894.4 502.84 C587.11 504.52, 280.76 504.27, 0 502.84 M0 502.84 C2.26 379.44, 1.72 255.12, 0 0 M0 502.84 C-0.91 349.18, -0.41 195.25, 0 0" stroke="transparent" stroke-width="2" fill="none"></path></g></svg>