<svg version="1.1" xmlns="http://www.w3.org/2000/svg" viewBox="0 0 914.3981481127521 522.8439295544886" width="1828.7962962255042" height="1045.6878591089771"><!-- svg-source:excalidraw --><metadata></metadata><defs><style class="style-fonts">
      </style></defs><rect x="0" y="0" width="914.3981481127521" height="522.8439295544886" fill="#ffffff"></rect><g stroke-linecap="round" transform="translate(10 10) rotate(0 447.19907405637605 251.42196477724428)"><path d="M0 0 C0 0, 0 0, 0 0 M0 0 C0 0, 0 0, 0 0 M0.13 12.04 C2.92 9.39, 7.24 5.45, 10.63 -0.03 M0.13 12.04 C4.38 7.82, 8.13 3.31, 10.63 -0.03 M0.27 24.08 C7.34 15.35, 14.56 9.56, 21.26 -0.07 M0.27 24.08 C8.01 13.81, 15.99 5.89, 21.26 -0.07 M-0.26 36.88 C8.26 26.9, 16.58 16.69, 31.89 -0.1 M-0.26 36.88 C10.2 24.02, 23.03 10.94, 31.89 -0.1 M-0.12 48.92 C16.42 31.15, 29.37 12.54, 42.52 -0.14 M-0.12 48.92 C9.12 38, 18.13 27.33, 42.52 -0.14 M0.01 60.96 C12.46 44.24, 27.39 30.76, 53.15 -0.17 M0.01 60.96 C14.02 43.67, 28.95 27.59, 53.15 -0.17 M0.14 73 C21.99 47.57, 42.14 27.03, 63.78 -0.21 M0.14 73 C24.54 43.19, 49.15 14.71, 63.78 -0.21 M0.28 85.04 C25.1 55.5, 52.75 25.49, 74.41 -0.24 M0.28 85.04 C25.01 57.95, 48.54 31.29, 74.41 -0.24 M-0.25 97.84 C31.08 63.46, 60.81 29.8, 85.04 -0.28 M-0.25 97.84 C24.2 71.34, 46.19 45.76, 85.04 -0.28 M-0.11 109.88 C38.92 68.82, 73.95 25.8, 95.67 -0.31 M-0.11 109.88 C29.35 74.79, 58.61 40.43, 95.67 -0.31 M0.02 121.92 C23.97 92.84, 44.45 67.57, 106.3 -0.34 M0.02 121.92 C37.32 78.82, 73.69 36.36, 106.3 -0.34 M0.15 133.96 C30.61 102.93, 58.65 66.39, 116.27 0.38 M0.15 133.96 C27.97 101.25, 54.25 68.77, 116.27 0.38 M0.29 146 C46.53 95.54, 88.22 44.53, 126.91 0.34 M0.29 146 C30.72 110.15, 62.35 76.39, 126.91 0.34 M-0.24 158.8 C48.96 102.99, 98.96 46.41, 137.54 0.31 M-0.24 158.8 C45.13 108.11, 88.98 57.59, 137.54 0.31 M-0.1 170.84 C50.48 113.44, 100.7 52.7, 148.17 0.27 M-0.1 170.84 C53 106.54, 108.41 43.72, 148.17 0.27 M0.03 182.88 C48.59 126.4, 100.21 67.68, 158.8 0.24 M0.03 182.88 C51.89 120.43, 104.45 61.02, 158.8 0.24 M0.16 194.92 C47.5 139.59, 96.62 84.06, 169.43 0.2 M0.16 194.92 C40.03 151.08, 78.57 105.46, 169.43 0.2 M0.3 206.96 C54.43 142.27, 110.49 80.69, 180.06 0.17 M0.3 206.96 C52.39 145.65, 105.34 86.16, 180.06 0.17 M-0.23 219.75 C41.7 172.3, 85.14 121.35, 190.69 0.13 M-0.23 219.75 C65.68 145.75, 131.29 69.71, 190.69 0.13 M-0.09 231.8 C58.57 161.77, 117.39 95.33, 201.32 0.1 M-0.09 231.8 C74.02 147.42, 149.22 60.38, 201.32 0.1 M0.04 243.84 C63.31 171.04, 125.86 100.06, 211.95 0.06 M0.04 243.84 C65.88 166.92, 131.61 90.52, 211.95 0.06 M0.17 255.88 C88.04 157.02, 176.18 55.48, 222.58 0.03 M0.17 255.88 C87.26 154.52, 175.04 54.68, 222.58 0.03 M0.3 267.92 C49.55 211.01, 101.35 153.07, 233.21 0 M0.3 267.92 C78.67 174.61, 159.08 83.21, 233.21 0 M-0.22 280.71 C80.89 184.4, 164.17 89.49, 243.84 -0.04 M-0.22 280.71 C77.6 190.22, 156.51 100.02, 243.84 -0.04 M-0.08 292.75 C90.33 186.01, 184.11 78.8, 254.47 -0.07 M-0.08 292.75 C87.46 194.87, 173.61 96.31, 254.47 -0.07 M0.05 304.8 C103.48 185.36, 204.87 65.61, 265.1 -0.11 M0.05 304.8 C100.1 191.19, 198.9 76.82, 265.1 -0.11 M0.18 316.84 C85.19 218.64, 170.43 121.69, 275.73 -0.14 M0.18 316.84 C57.34 252, 112.62 188.85, 275.73 -0.14 M0.31 328.88 C70.3 248.85, 140.16 169.21, 286.36 -0.18 M0.31 328.88 C88.88 225.7, 178.3 123.47, 286.36 -0.18 M-0.21 341.67 C85.1 245.59, 168.11 150.66, 296.99 -0.21 M-0.21 341.67 C99.63 226.71, 198.44 112.66, 296.99 -0.21 M-0.08 353.71 C91.72 245.26, 185.22 137.69, 307.62 -0.25 M-0.08 353.71 C107.89 230.86, 215.89 106.65, 307.62 -0.25 M0.06 365.75 C95.47 255.1, 190.61 143.55, 318.25 -0.28 M0.06 365.75 C105.45 243.23, 211.31 120.62, 318.25 -0.28 M0.19 377.79 C70.94 295.33, 142.47 212.8, 328.88 -0.31 M0.19 377.79 C81.43 281.92, 163.29 187.38, 328.88 -0.31 M0.32 389.84 C89.09 285.29, 178.64 182.47, 339.51 -0.35 M0.32 389.84 C101.73 272.9, 203.58 156.23, 339.51 -0.35 M-0.2 402.63 C124.45 259.71, 249.51 117.65, 349.48 0.37 M-0.2 402.63 C75.58 315.02, 153.24 225.98, 349.48 0.37 M-0.07 414.67 C84.93 315.57, 169.09 219.01, 360.11 0.34 M-0.07 414.67 C119.13 278.23, 236.38 142.55, 360.11 0.34 M0.07 426.71 C112.93 295.94, 226.28 164.69, 370.74 0.3 M0.07 426.71 C81.43 332.84, 162.69 239.32, 370.74 0.3 M0.2 438.75 C138.04 280.5, 276.87 122.8, 381.37 0.27 M0.2 438.75 C81.26 346.01, 162.23 253.41, 381.37 0.27 M-0.32 451.55 C154.49 271.25, 310.99 91.95, 392 0.23 M-0.32 451.55 C100.25 337.74, 198.96 223.79, 392 0.23 M-0.19 463.59 C147.73 295.05, 294.09 126.68, 402.63 0.2 M-0.19 463.59 C140.29 302.51, 280.09 141.78, 402.63 0.2 M-0.06 475.63 C155.1 296.58, 310.03 119.67, 413.26 0.16 M-0.06 475.63 C115.75 344.15, 229.57 212.46, 413.26 0.16 M0.08 487.67 C104.9 367.84, 207.32 249.79, 423.89 0.13 M0.08 487.67 C94.67 379.52, 188.98 270.51, 423.89 0.13 M0.21 499.71 C133.9 344.98, 269.45 190.28, 434.52 0.1 M0.21 499.71 C126.02 354.5, 253.14 207.86, 434.52 0.1 M8.22 502.7 C171.45 316.06, 333.39 129.38, 445.15 0.06 M8.22 502.7 C152.53 337.06, 298.12 170.12, 445.15 0.06 M18.85 502.66 C151.23 349.4, 286.13 196.2, 455.78 0.03 M18.85 502.66 C129.21 373.38, 240.09 245.5, 455.78 0.03 M29.48 502.63 C116.94 399.15, 205.76 296.7, 466.41 -0.01 M29.48 502.63 C144.42 370.36, 258.12 239.11, 466.41 -0.01 M40.11 502.59 C211.79 304.93, 382.39 107.43, 477.04 -0.04 M40.11 502.59 C198.8 319.86, 356.38 138.17, 477.04 -0.04 M50.74 502.56 C210.88 319.27, 371.01 135.16, 487.67 -0.08 M50.74 502.56 C224.14 301.52, 397.84 102.6, 487.67 -0.08 M60.71 503.28 C157.29 393.14, 254.12 282.04, 498.3 -0.11 M60.71 503.28 C218.71 321.82, 376.84 139.93, 498.3 -0.11 M71.34 503.24 C231.12 318.26, 392.27 133.91, 508.93 -0.15 M71.34 503.24 C171.05 390.91, 269.99 278.17, 508.93 -0.15 M81.97 503.21 C245.77 317.79, 408.05 130.68, 519.56 -0.18 M81.97 503.21 C191.07 377.62, 301.34 250.85, 519.56 -0.18 M92.6 503.18 C215.7 359.18, 339.6 217.24, 530.19 -0.22 M92.6 503.18 C193.66 388.98, 293.62 273.93, 530.19 -0.22 M103.23 503.14 C214.67 376.09, 326.06 248.38, 540.82 -0.25 M103.23 503.14 C270.25 311.04, 436.66 120.26, 540.82 -0.25 M113.86 503.11 C232.82 365.02, 351.16 227.84, 551.45 -0.28 M113.86 503.11 C285.68 304.29, 456.6 107.77, 551.45 -0.28 M124.49 503.07 C297.19 301.95, 472.48 101.29, 562.08 -0.32 M124.49 503.07 C272.71 333.84, 419.9 164.35, 562.08 -0.32 M135.12 503.04 C255.6 365.97, 375.58 226.36, 572.71 -0.35 M135.12 503.04 C261.66 356.05, 389.83 208.49, 572.71 -0.35 M145.75 503 C305.61 315.59, 466.55 130.14, 582.69 0.37 M145.75 503 C262.93 369.24, 379.87 235.84, 582.69 0.37 M156.38 502.97 C288.19 353.53, 418.27 204.07, 593.32 0.33 M156.38 502.97 C250.67 395.73, 343.24 289.09, 593.32 0.33 M167.01 502.93 C278.59 377.42, 388.68 251.1, 603.95 0.3 M167.01 502.93 C324.83 322.21, 481.41 142.12, 603.95 0.3 M177.64 502.9 C320.1 337.07, 462.3 171.22, 614.58 0.26 M177.64 502.9 C275.65 390.13, 374.23 275.95, 614.58 0.26 M188.27 502.87 C345.3 324.03, 501.91 143.19, 625.21 0.23 M188.27 502.87 C342.96 325.66, 497.49 147.98, 625.21 0.23 M198.9 502.83 C299.44 386.65, 401.65 270.66, 635.84 0.19 M198.9 502.83 C338.16 344.61, 475.33 187.41, 635.84 0.19 M209.53 502.8 C357.03 336.33, 501.03 169.22, 646.47 0.16 M209.53 502.8 C312.39 381.92, 416.99 261.94, 646.47 0.16 M220.16 502.76 C332.42 377.17, 442.31 250.57, 657.1 0.13 M220.16 502.76 C327.94 379.95, 435.98 256.12, 657.1 0.13 M230.79 502.73 C333.36 382.29, 435.89 264.19, 667.73 0.09 M230.79 502.73 C386.29 324.63, 539.67 148.06, 667.73 0.09 M241.42 502.69 C375.3 351.44, 507.4 198.8, 678.36 0.06 M241.42 502.69 C372.77 353.61, 502.83 204.27, 678.36 0.06 M252.05 502.66 C366.9 368.31, 481.84 234.34, 688.99 0.02 M252.05 502.66 C370.29 363.22, 490.03 225.79, 688.99 0.02 M262.68 502.62 C385.96 362.14, 505.46 222.9, 699.62 -0.01 M262.68 502.62 C411.5 331.92, 559.57 161, 699.62 -0.01 M273.31 502.59 C377.84 383.52, 483.9 262.36, 710.25 -0.05 M273.31 502.59 C420.54 332.8, 569.08 161.84, 710.25 -0.05 M283.94 502.56 C434.53 329, 586.46 153.2, 720.88 -0.08 M283.94 502.56 C432.6 332.12, 580.68 161.05, 720.88 -0.08 M293.92 503.28 C427.02 348.53, 559.78 194.41, 731.51 -0.12 M293.92 503.28 C438.26 335.66, 583.52 168.9, 731.51 -0.12 M304.55 503.24 C417.5 373.64, 532.73 240.59, 742.14 -0.15 M304.55 503.24 C420.33 366.95, 538.16 231.45, 742.14 -0.15 M315.18 503.21 C417.89 383.91, 520.8 264.7, 752.77 -0.19 M315.18 503.21 C481.67 312.43, 647.68 121.37, 752.77 -0.19 M325.81 503.17 C433.2 382.52, 539.72 259.88, 763.4 -0.22 M325.81 503.17 C497.47 305.3, 669.07 107.68, 763.4 -0.22 M336.44 503.14 C480.38 337.23, 623.25 173.21, 774.03 -0.25 M336.44 503.14 C450.82 371.64, 563.6 241.89, 774.03 -0.25 M347.07 503.1 C474.35 357.91, 602.22 211.3, 784.66 -0.29 M347.07 503.1 C511.19 314.79, 674.49 127.03, 784.66 -0.29 M357.7 503.07 C492.04 347.12, 628.32 191.45, 795.29 -0.32 M357.7 503.07 C488.8 352.15, 619.91 202.25, 795.29 -0.32 M368.33 503.03 C489.92 361.46, 612.67 221.27, 805.92 -0.36 M368.33 503.03 C536.23 311.47, 702.34 120.72, 805.92 -0.36 M378.96 503 C481.18 383.7, 583.13 267.41, 815.89 0.36 M378.96 503 C500.55 366.36, 619.74 228.19, 815.89 0.36 M389.59 502.96 C505.04 366.15, 623.48 232.07, 826.52 0.33 M389.59 502.96 C552.62 317.24, 714.02 131.02, 826.52 0.33 M400.22 502.93 C565.63 314.25, 730.61 123.35, 837.15 0.29 M400.22 502.93 C533.72 346.59, 668.17 192.01, 837.15 0.29 M410.85 502.9 C580.57 310.65, 747.61 118.6, 847.78 0.26 M410.85 502.9 C501.79 400.78, 591.71 298.09, 847.78 0.26 M421.48 502.86 C573.18 327.19, 726.04 151.05, 858.41 0.22 M421.48 502.86 C583.77 313.82, 746.99 126.14, 858.41 0.22 M432.11 502.83 C577.17 336.88, 722.24 170.46, 869.04 0.19 M432.11 502.83 C580.44 329.28, 730.96 156.92, 869.04 0.19 M442.74 502.79 C610.05 310.89, 777.46 118.71, 879.67 0.16 M442.74 502.79 C615.15 305.55, 785.31 109.42, 879.67 0.16 M453.37 502.76 C584.24 354.67, 714.1 205.05, 890.3 0.12 M453.37 502.76 C605.44 329.11, 756.06 156.3, 890.3 0.12 M464 502.72 C565.38 386.77, 664.81 271.48, 895.03 6.88 M464 502.72 C603.71 342.18, 745.02 180.08, 895.03 6.88 M474.63 502.69 C573.4 388, 674.23 273.44, 895.16 18.92 M474.63 502.69 C627.63 327.88, 779.78 152.53, 895.16 18.92 M485.26 502.65 C601.28 369.18, 716.23 236.21, 895.3 30.96 M485.26 502.65 C607.66 360.57, 730.66 218.04, 895.3 30.96 M495.89 502.62 C651.21 324.53, 806.02 145.1, 895.43 43 M495.89 502.62 C594.62 386.62, 694.12 271.3, 895.43 43 M506.52 502.59 C604.94 389.47, 702.8 276.78, 894.91 55.8 M506.52 502.59 C616.31 377.38, 725.15 252.61, 894.91 55.8 M517.15 502.55 C655.89 342.31, 793.79 183.96, 895.04 67.84 M517.15 502.55 C614.87 389.48, 712.94 276.32, 895.04 67.84 M527.12 503.27 C627.39 390.02, 727.91 274.78, 895.17 79.88 M527.12 503.27 C667.05 343.19, 805.2 183.8, 895.17 79.88 M537.75 503.24 C629.82 397.65, 720.96 290.82, 895.3 91.92 M537.75 503.24 C663.12 361.3, 786.28 219.21, 895.3 91.92 M548.38 503.2 C621.55 419.7, 694.55 335.14, 895.44 103.96 M548.38 503.2 C670.97 362.52, 793.17 222.43, 895.44 103.96 M559.01 503.17 C671.18 375.87, 780.61 248.47, 894.92 116.76 M559.01 503.17 C644.35 403.29, 730.07 305.23, 894.92 116.76 M569.64 503.13 C687.59 368.06, 804.14 232.75, 895.05 128.8 M569.64 503.13 C673.55 383.08, 777.23 263.67, 895.05 128.8 M580.27 503.1 C681.49 384.53, 783.69 267.4, 895.18 140.84 M580.27 503.1 C653.92 418.99, 727.56 333.26, 895.18 140.84 M590.9 503.06 C693.33 382.56, 796.91 263.95, 895.31 152.88 M590.9 503.06 C662.3 420.25, 734.71 336.24, 895.31 152.88 M601.53 503.03 C707.01 381.14, 813.17 261.25, 895.45 164.92 M601.53 503.03 C698.6 391.64, 797.26 278.41, 895.45 164.92 M612.16 503 C721.03 373.94, 831.97 247.52, 894.92 177.72 M612.16 503 C673.04 431.9, 734.19 362.23, 894.92 177.72 M622.79 502.96 C686.21 431.22, 749.23 358.35, 895.06 189.76 M622.79 502.96 C705.03 411.06, 784.91 318.53, 895.06 189.76 M633.42 502.93 C710.38 416.96, 785.59 330.98, 895.19 201.8 M633.42 502.93 C688.71 441.02, 743.68 377.83, 895.19 201.8 M644.05 502.89 C724.29 411.21, 802.47 319.99, 895.32 213.84 M644.05 502.89 C710.51 428.42, 775.67 352.99, 895.32 213.84 M654.68 502.86 C707.51 438.8, 762.81 376.27, 895.46 225.88 M654.68 502.86 C731.68 414.14, 809.28 325.19, 895.46 225.88 M665.31 502.82 C723.31 438, 780.18 370.2, 894.93 238.67 M665.31 502.82 C729.02 430.38, 792.06 357.49, 894.93 238.67 M675.94 502.79 C747.51 419.06, 820.71 335.09, 895.07 250.72 M675.94 502.79 C744.26 426.52, 811.82 347.89, 895.07 250.72 M686.57 502.75 C742.71 437.78, 801.29 373, 895.2 262.76 M686.57 502.75 C765.11 414.15, 842.13 323.37, 895.2 262.76 M697.2 502.72 C768.33 422.69, 837.98 340.46, 895.33 274.8 M697.2 502.72 C751.89 441.68, 805.69 378.64, 895.33 274.8 M707.83 502.68 C760.43 442.33, 812.55 381.33, 895.47 286.84 M707.83 502.68 C764.47 438.57, 821.1 373.72, 895.47 286.84 M718.46 502.65 C783.89 427.03, 851.5 350.19, 894.94 299.63 M718.46 502.65 C782.61 429.38, 846.69 355.44, 894.94 299.63 M729.09 502.62 C786.5 434.12, 841.93 368.92, 895.08 311.67 M729.09 502.62 C791.58 430.03, 857.4 355.22, 895.08 311.67 M739.72 502.58 C786.16 448.64, 832.23 398.56, 895.21 323.72 M739.72 502.58 C780.71 454.06, 824.27 405.87, 895.21 323.72 M750.35 502.55 C784.86 464.13, 817.22 422.91, 895.34 335.76 M750.35 502.55 C790.08 457.05, 831.1 412.36, 895.34 335.76 M760.33 503.27 C808.73 448.63, 853.65 397.66, 894.82 348.55 M760.33 503.27 C807.87 448.77, 854.96 394.21, 894.82 348.55 M770.96 503.23 C804.67 466.67, 837.09 427.09, 894.95 360.59 M770.96 503.23 C820.94 448.78, 869.87 392.11, 894.95 360.59 M781.59 503.2 C826.01 452.37, 870.36 403.45, 895.09 372.63 M781.59 503.2 C816.06 463.17, 850.96 423.4, 895.09 372.63 M792.22 503.16 C819.36 472.6, 847.45 437.99, 895.22 384.67 M792.22 503.16 C820.29 470.01, 849.04 436.48, 895.22 384.67 M802.85 503.13 C838.82 461.96, 876.92 420.91, 895.35 396.71 M802.85 503.13 C827.47 474.27, 850.65 445.33, 895.35 396.71 M813.48 503.09 C827.93 483.25, 846.71 465.02, 894.83 409.51 M813.48 503.09 C833.8 480.12, 853.96 457.1, 894.83 409.51 M824.11 503.06 C850.17 471.89, 877.33 439.51, 894.96 421.55 M824.11 503.06 C847.6 475.69, 870.54 449.54, 894.96 421.55 M834.74 503.03 C855.11 477.23, 874.76 456.89, 895.1 433.59 M834.74 503.03 C856.18 478.33, 876.61 454.41, 895.1 433.59 M845.37 502.99 C860.28 488.17, 874.25 471.34, 895.23 445.63 M845.37 502.99 C856.12 489.07, 868.18 474.6, 895.23 445.63 M856 502.96 C870.49 487.96, 882.33 474.22, 895.36 457.67 M856 502.96 C864.38 492.74, 871.99 483.72, 895.36 457.67 M866.63 502.92 C873.56 495.24, 882.38 485.35, 894.84 470.47 M866.63 502.92 C875.49 493.98, 882.28 484.97, 894.84 470.47 M877.26 502.89 C882.59 498.65, 887.32 493.34, 894.97 482.51 M877.26 502.89 C883.61 496.92, 888.63 489.38, 894.97 482.51 M887.89 502.85 C888.81 501.53, 891.76 499.16, 895.11 494.55 M887.89 502.85 C890.12 500.19, 893.85 496.57, 895.11 494.55" stroke="#e9ecef" stroke-width="1" fill="none"></path><path d="M0 0 C208.43 -1.06, 418.17 -0.57, 894.4 0 M0 0 C257.58 0.15, 514.92 0.56, 894.4 0 M894.4 0 C892.1 145.79, 892.51 292.6, 894.4 502.84 M894.4 0 C895.97 197.62, 895.88 394.7, 894.4 502.84 M894.4 502.84 C575.1 502.23, 254.89 503.5, 0 502.84 M894.4 502.84 C646.26 500.48, 399.01 500.7, 0 502.84 M0 502.84 C2.54 398.44, 1.75 292.86, 0 0 M0 502.84 C-0.68 323.39, -0.57 144.76, 0 0" stroke="transparent" stroke-width="2" fill="none"></path></g></svg>