<?xml version="1.0" encoding="UTF-8" standalone="no"?>
<!-- Created with Inkscape (http://www.inkscape.org/) -->

<svg
  width="195.08995mm"
  height="234.54327mm"
  viewBox="0 0 195.08995 234.54327"
  version="1.1"
  id="svg1"
  xml:space="preserve"
  inkscape:version="1.3.2 (091e20e, 2023-11-25)"
  sodipodi:docname="portrait-sketch.svg"
  xmlns:inkscape="http://www.inkscape.org/namespaces/inkscape"
  xmlns:sodipodi="http://sodipodi.sourceforge.net/DTD/sodipodi-0.dtd"
  xmlns="http://www.w3.org/2000/svg"
  xmlns:svg="http://www.w3.org/2000/svg"><sodipodi:namedview
     id="namedview1"
     pagecolor="#ffffff"
     bordercolor="#000000"
     borderopacity="0.25"
     inkscape:showpageshadow="2"
     inkscape:pageopacity="0.0"
     inkscape:pagecheckerboard="0"
     inkscape:deskcolor="#d1d1d1"
     inkscape:document-units="mm"
     inkscape:zoom="0.5"
     inkscape:cx="612"
     inkscape:cy="594"
     inkscape:window-width="1440"
     inkscape:window-height="847"
     inkscape:window-x="0"
     inkscape:window-y="25"
     inkscape:window-maximized="0"
     inkscape:current-layer="layer1" /><defs
     id="defs1" /><g
     inkscape:label="Layer 1"
     inkscape:groupmode="layer"
     id="layer1"
     transform="translate(-4.6317563,-24.685849)"><path
      id="path1"
      style="fill:#a5d8ff"
      d="m 158.34485,24.727172 c -0.80992,0.119308 -1.84307,0.498034 -3.13263,1.141016 -2.03297,1.013653 -2.07936,1.022797 -4.04109,0.808219 -1.0914,-0.11938 -3.49842,-0.152951 -5.34903,-0.07493 -2.95796,0.124707 -3.50177,0.07954 -4.49792,-0.372587 -2.01959,-0.916635 -4.99178,-0.529875 -8.13903,1.05885 -0.91514,0.461965 -1.99789,0.797852 -2.57762,0.799952 -0.54985,0.0019 -2.00166,0.35206 -3.22616,0.778247 -1.38416,0.481754 -2.50174,0.719939 -2.95435,0.629419 -1.03636,-0.207273 -3.11276,0.554902 -4.91391,1.803507 -2.05137,1.422066 -2.99266,2.326674 -5.04103,4.845182 l -1.71359,2.106849 -2.204,0.445967 c -4.22668,0.855714 -6.96267,2.977719 -9.05527,7.022827 -1.949087,3.767701 -3.414517,9.704177 -3.184807,12.901024 0.0995,1.38504 -0.0133,1.85553 -0.98496,4.10104 -0.60365,1.39507 -1.561,3.7269 -2.127,5.18211 -0.56601,1.4552 -1.69906,3.65786 -2.51819,4.89479 -2.04879,3.0938 -5.08714,8.58893 -8.32714,15.06006 -4.03267,8.05426 -5.07415,10.63619 -7.53236,18.674316 -0.8391,2.74376 -4.93137,10.3382 -6.19239,11.4918 -3.51765,3.21801 -10.60624,10.54577 -12.01063,12.41578 -2.05484,2.7361 -4.07699,6.83363 -4.88653,9.9012 l -0.61339,2.32338 -2.76728,2.39727 c -1.52213,1.31846 -4.41045,3.77392 -6.418207,5.45651 -2.00776,1.68259 -3.76812,3.27891 -3.91191,3.54759 -0.17391,0.32488 -0.16991,0.65915 0.01137,0.99787 0.24443,0.45673 -0.0117,0.66149 -2.47892,1.98489 -1.51317,0.81166 -3.3469,1.87651 -4.07468,2.36627 -0.72777,0.48975 -2.33374,1.3796 -3.56929,1.97765 -2.62742,1.27175 -4.8681,3.20215 -6.32107,5.44567 -1.16897,1.80499 -2.06654,4.45865 -2.06654,6.11022 0,0.72045 -0.43099,2.24427 -1.17098,4.13928 -3.06138,7.83977 -6.06004,20.07372 -9.263,37.79149 -2.7173797,15.03167 -4.0197297,23.72592 -5.5634897,37.13882 -0.45171,3.92471 -0.78777,6.57161 -0.89607,7.21041 h 2.60708 c 0.0032,-0.33925 -0.03442,-0.50899 0.02894,-1.02268 0.11225,-0.91003 0.57536,-4.7503 1.02939,-8.53384 2.2789597,-18.99104 6.4104697,-42.83316 9.7683997,-56.37227 2.11401,-8.52362 4.37155,-15.43441 5.58932,-17.11058 0.41148,-0.56638 0.54,-1.22425 0.5948,-3.04271 0.06217,-2.06509 0.16992,-2.5093 0.98288,-4.04007 1.57348,-2.96278 4.71173,-5.52601 7.2316,-5.90661 0.93187,-0.14074 1.12371,-0.0534 2.29237,1.03973 3.38405,3.16539 7.07494,10.21541 10.23503,19.55126 2.577107,7.61353 4.717527,17.94999 6.136577,29.63333 0.74303,6.1176 2.07821,18.5813 2.42311,22.62188 0.34201,4.00706 0.66209,21.24218 0.41858,22.54022 l -0.12041,0.64234 h 2.46807 l -0.005,-9.35808 c -0.006,-10.10854 -0.12914,-12.26124 -1.4609,-25.46615 -1.42268,-14.10645 -2.56054,-21.71266 -4.64984,-31.08544 -2.89598,-12.9916 -8.242157,-25.34317 -13.234337,-30.57695 l -1.44745,-1.51773 1.5937,-0.9679 c 4.06325,-2.4683 10.455437,-5.14256 16.716807,-6.99337 4.39667,-1.29964 11.99729,-3.42866 12.05559,-3.37706 0.25672,0.22733 0.61774,5.02249 0.61702,8.1933 -0.002,8.77417 -2.03714,23.06198 -4.49844,31.57998 -1.31109,4.53745 -1.38774,4.45468 3.91294,4.24109 4.09792,-0.16512 13.78969,-1.18157 19.3673,-2.03088 1.81653,-0.27661 3.33657,-0.4694 3.37757,-0.4284 0.041,0.041 -1.10158,2.02734 -2.53886,4.4142 -1.43728,2.38686 -3.82713,6.56753 -5.31079,9.28987 -2.98824,5.48307 -2.9848,5.46382 -1.15962,6.59185 1.18437,0.73198 6.84755,5.26588 15.87655,12.71085 19.270917,15.89006 36.142037,28.64401 45.624597,34.4904 l 0.47129,0.29042 h 4.32946 c -0.0709,-0.0863 -0.13601,-0.12817 -0.20826,-0.22737 -0.5973,-0.82015 -1.51408,-1.47735 -3.70417,-2.65411 -7.31823,-3.93216 -22.34645,-15.28313 -47.360407,-35.77197 -4.80219,-3.93345 -9.77306,-7.97427 -11.04636,-8.97982 -1.27331,-1.00555 -2.3151,-1.90579 -2.3151,-2.00039 0,-0.0946 1.28802,-2.4862 2.86236,-5.31492 3.04005,-5.46228 7.19398,-12.24442 10.03711,-16.38815 2.83999,-4.13915 8.764797,-11.37708 9.313127,-11.37708 0.0988,0 0.44506,0.47236 0.76946,1.04955 0.55454,0.98665 0.56425,1.08841 0.16071,1.70428 -0.84777,1.29387 0.0569,2.78347 1.24127,2.04381 0.5123,-0.31993 0.62389,-0.29152 1.05316,0.26665 0.55896,0.72679 0.61472,2.04204 0.21963,5.19296 -0.32267,2.57334 -0.011,3.48314 1.38441,4.03903 0.4798,0.19113 0.89966,0.36386 0.93276,0.38396 0.0331,0.0201 -0.35384,1.1948 -0.85989,2.61069 -0.50606,1.4159 -0.92036,2.93207 -0.92036,3.3693 0,1.19312 1.03162,2.09393 2.39778,2.09393 0.89043,0 1.06834,0.0788 0.93897,0.416 -0.0878,0.22886 -0.65667,2.12386 -1.26401,4.21111 -1.0608,3.64564 -1.08674,3.82171 -0.66094,4.47156 0.24379,0.37207 0.78635,0.76901 1.20561,0.88212 l 0.76223,0.20567 -0.89504,2.91042 c -1.04119,3.38665 -1.0907,4.05829 -0.3576,4.84518 0.66793,0.71699 1.439,0.73007 3.15485,0.0537 l 1.33273,-0.52554 v 1.33066 c 0,0.87336 -0.31822,2.18004 -0.92604,3.80287 -0.50932,1.35985 -0.92604,2.73027 -0.92604,3.04478 0,0.84183 0.63705,1.9229 1.51205,2.56677 0.63957,0.47059 0.75209,0.71742 0.66559,1.4583 -0.19525,1.67249 1.74438,3.076 2.79673,2.02365 0.44546,-0.44549 0.39507,-1.4055 -0.0951,-1.81229 -0.30175,-0.2504 -0.36809,-0.60412 -0.24753,-1.31775 0.15311,-0.90623 0.0812,-1.04908 -1.01131,-2.01073 l -1.17616,-1.03559 0.63872,-1.71411 c 0.8383,-2.24943 1.4704,-5.47071 1.27021,-6.47247 -0.30169,-1.50968 -0.42409,-1.73066 -1.17254,-2.1177 -0.67529,-0.3492 -0.89911,-0.33709 -2.23035,0.12092 -1.16885,0.40215 -1.4795,0.43406 -1.4795,0.15141 0,-0.19679 0.47478,-1.76825 1.05472,-3.49178 0.57994,-1.72351 1.05633,-3.34202 1.05833,-3.59668 0.007,-0.81413 -0.99628,-1.57593 -1.83296,-1.39216 l -0.74414,0.1633 1.16685,-3.91656 c 0.68027,-2.28338 1.10408,-4.17168 1.01648,-4.52892 -0.16377,-0.66754 -1.51716,-1.37201 -2.63654,-1.37201 -0.89904,0 -0.85718,-0.3973 0.36226,-3.41374 l 1.00562,-2.48771 1.46399,2.48771 c 8.1861,13.91207 13.7371,24.70118 21.67723,42.13127 3.74938,8.2306 6.77436,14.47254 8.84081,18.24437 0.97359,1.77705 2.17639,3.97496 2.67322,4.88445 0.23578,0.43171 0.25656,0.5237 0.37362,0.75913 h 3.04529 c -0.10504,-0.15028 -0.17206,-0.17284 -0.31161,-0.39171 -0.79603,-1.24854 -0.80125,-1.27976 -0.2682,-1.51567 0.74018,-0.32757 2.07643,-2.70611 4.80281,-8.54779 5.14773,-11.02982 7.38679,-16.72158 8.85424,-22.50871 1.28389,-5.06312 1.40583,-7.2348 1.21801,-21.7041 -0.1879,-14.47504 -0.35374,-17.57024 -1.39319,-25.97774 l -0.70952,-5.7366 0.80925,-0.6811 c 0.56375,-0.47436 0.90846,-1.09474 1.13688,-2.0469 l 0.32763,-1.36684 0.50643,0.98753 c 0.42082,0.82027 0.62724,0.97326 1.21956,0.90486 0.66738,-0.0771 0.7177,-0.17527 0.786,-1.53738 0.0402,-0.80037 -0.0986,-2.10906 -0.30851,-2.90835 -0.28729,-1.09407 -0.30521,-1.5017 -0.0729,-1.64951 1.10239,-0.70131 1.63966,-0.0702 10.44019,12.26127 3.36323,4.71264 7.8014,10.7116 9.86245,13.33097 l 3.74757,4.7625 -1.08107,0.0811 c -1.55377,0.11639 -6.46933,-0.82021 -12.44833,-2.37143 -2.85184,-0.7399 -5.42099,-1.33598 -5.70922,-1.32498 -0.55264,0.021 -1.19579,0.70684 -1.19579,1.27537 0,0.1854 0.3374,0.72812 0.74983,1.20613 1.65631,1.91968 5.50156,8.16791 7.37371,11.9817 1.27584,2.59905 1.31761,3.08839 0.47542,5.55625 -3.15131,9.23419 -7.66864,19.29102 -12.77648,28.4427 -3.20817,5.74806 -7.37215,12.23481 -10.81433,16.84704 -0.98512,1.31998 -1.51003,2.13903 -1.7911,2.63136 h 3.175 c 0.21731,-0.36729 0.26379,-0.53852 0.67799,-1.10484 8.90368,-12.17354 17.44192,-28.11477 22.44928,-41.91372 2.42122,-6.67226 2.54993,-7.49875 1.5415,-9.88054 -0.83178,-1.96459 -3.49787,-6.82343 -5.14955,-9.38495 -0.77739,-1.20562 -1.41335,-2.25971 -1.41335,-2.34301 0,-0.0832 0.20836,-0.0691 0.46302,0.0315 1.29965,0.51322 8.98149,2.32853 11.79721,2.78794 5.45098,0.88939 7.31893,0.62773 7.31893,-1.02526 0,-0.83696 -0.58522,-1.69292 -4.64002,-6.78408 -3.73418,-4.68859 -6.8215,-8.82308 -10.96471,-14.68437 -1.80014,-2.54661 -3.56397,-5.01717 -3.91966,-5.49011 -1.54761,-2.05777 0.30303,-0.46209 5.83066,5.02709 8.21942,8.16224 12.28327,13.11711 14.37638,17.52864 2.23287,4.70608 2.10294,2.85026 2.03864,29.07006 -0.051,20.76744 -0.19366,27.52567 -0.77773,36.87734 l -0.0806,1.28829 h 2.38642 l 0.078,-1.156 c 0.66752,-9.90184 0.78865,-15.45863 0.80925,-37.10781 l 0.0227,-23.68021 -0.59841,-2.06396 c -1.15835,-3.99674 -3.03677,-7.25784 -7.23832,-12.56461 -2.51945,-3.18219 -9.84342,-10.79204 -13.4121,-13.93558 l -2.39055,-2.1053 1.26193,-0.72088 c 1.51623,-0.86595 3.37646,-2.87537 4.49224,-4.85242 2.07247,-3.67223 4.40479,-10.94829 5.98051,-18.65829 l 0.89193,-4.36563 -0.15089,2.52026 c -0.16669,2.78427 0.29179,7.57402 0.85369,8.91884 0.26723,0.63957 0.52804,0.86403 1.00356,0.86403 1.21252,0 1.31965,-0.46026 0.95912,-4.12688 -0.58262,-5.92523 -0.18797,-9.58777 2.51922,-23.37997 3.44586,-17.55542 3.90861,-20.5067 3.92121,-25.012936 0.0127,-4.54782 -0.82076,-8.46102 -2.73627,-12.8509 -0.7304,-1.67391 -0.74991,-1.82668 -0.52348,-4.10104 0.12935,-1.2993 0.27348,-4.60458 0.31988,-7.34477 0.0786,-4.64134 0.0501,-5.00699 -0.41755,-5.34903 -0.2761,-0.20198 -0.60416,-0.30428 -0.72864,-0.22738 -0.12446,0.0769 -0.20566,-0.49274 -0.18086,-1.26555 0.0338,-1.05034 0.19729,-1.5721 0.64802,-2.06654 0.77276,-0.84771 1.42472,-2.40963 1.42472,-3.41323 0,-1.07922 -3.35119,-7.991313 -4.85552,-10.014891 -0.67643,-0.909913 -1.2299,-1.933753 -1.2299,-2.275313 0,-0.663476 -1.07282,-2.277568 -2.20762,-3.321244 -0.58683,-0.539709 -0.63282,-0.680273 -0.30385,-0.926042 0.21331,-0.159362 0.46278,-0.671837 0.55448,-1.138949 0.13914,-0.708431 0.0378,-0.978706 -0.61236,-1.628841 -0.77539,-0.775384 -2.2541,-1.348704 -3.51607,-1.363224 -0.41788,-0.0048 -1.13005,-0.454462 -1.93424,-1.221631 -1.243,-1.185754 -1.26015,-1.2238 -0.72761,-1.596802 0.68824,-0.48204 0.73577,-1.951879 0.0822,-2.535245 -0.67926,-0.606276 -2.31014,-0.966369 -4.60851,-1.017509 -1.69108,-0.03763 -2.04929,-0.122505 -2.15077,-0.510563 -0.0686,-0.262401 -0.49038,-0.546584 -0.96635,-0.651124 -0.65515,-0.143888 -0.80242,-0.283528 -0.65629,-0.623217 1.30577,-3.035332 -1.89747,-4.876947 -6.23993,-3.587378 -1.51072,0.448637 -2.38756,0.392123 -4.72529,-0.303858 -1.05278,-0.313437 -1.34473,-0.500635 -1.12448,-0.720886 0.49956,-0.499557 0.34859,-1.992349 -0.26303,-2.603975 -0.39486,-0.394854 -0.98119,-0.534787 -1.79111,-0.415479 z m -2.82928,4.683952 c 1.53947,0.0077 1.62211,0.239721 0.91105,2.548165 -0.52559,1.706333 -0.74498,2.093229 -1.22783,2.162659 -0.50671,0.07286 -0.58808,-0.03693 -0.58808,-0.795301 0,-0.484024 -0.12122,-1.296178 -0.26923,-1.804541 -0.376,-1.291426 0.083,-2.116382 1.17409,-2.110982 z m -15.66003,0.260449 c 0.68324,0 1.00734,0.09368 0.85163,0.24598 -0.51256,0.501354 -1.62716,0.607199 -1.79473,0.170532 -0.12969,-0.337966 0.0482,-0.416512 0.9431,-0.416512 z m -4.26279,0.661459 c 0.33459,-0.06584 0.58685,0.07083 0.76688,0.40721 0.16615,0.310498 0.26317,0.601145 0.21497,0.645955 -0.0482,0.0448 -1.25984,0.391803 -2.69131,0.771013 -1.43145,0.379194 -2.6231,0.689363 -2.6479,0.689363 -0.0248,0 -0.18772,-0.227797 -0.36173,-0.506429 -0.25154,-0.402714 -0.24083,-0.568987 0.0512,-0.81132 0.28203,-0.234067 0.522,-0.203907 1.03353,0.131258 0.77481,0.507677 1.41546,0.367447 2.37401,-0.520898 0.50933,-0.47203 0.9258,-0.740314 1.26039,-0.806152 z m 24.2688,0.04289 c 0.13916,-0.07761 0.33306,-0.05702 0.55242,0.07855 0.27357,0.169076 0.22541,0.287153 -0.21135,0.520899 -0.45824,0.245239 -0.56483,0.228967 -0.56483,-0.08785 0,-0.25791 0.0846,-0.433987 0.22376,-0.511597 z m -12.91135,0.412895 c 0.25009,0.0723 0.24859,0.640389 0.23719,2.887162 -0.008,1.654079 -0.0977,3.423772 -0.19844,3.933093 -0.15876,0.802544 -0.28535,0.926042 -0.94826,0.926042 -1.60549,0 -1.57733,1.204237 0.0889,3.782198 l 1.06143,1.64176 -0.72192,-0.01033 c -0.64341,-0.0094 -0.83041,-0.246605 -1.71979,-2.182813 -0.54878,-1.194716 -0.99519,-2.300162 -0.99219,-2.456697 0.003,-0.156535 0.29844,-0.559886 0.65629,-0.896069 0.90108,-0.846527 1.09049,-2.430722 0.56637,-4.735112 -0.54293,-2.387044 -0.55029,-2.324713 0.30438,-2.511475 0.40019,-0.08745 0.9955,-0.235432 1.32292,-0.328662 0.14824,-0.04221 0.25976,-0.07319 0.34313,-0.04909 z m 16.80052,1.264005 c 0.48126,0 -0.30684,1.085087 -2.86649,3.94808 -2.71194,3.033334 -4.80708,4.768737 -4.29018,3.553271 0.11456,-0.269367 0.2572,-0.847081 0.3173,-1.283642 0.25935,-1.884935 0.32331,-1.958752 3.51709,-4.098458 1.7395,-1.165387 3.23458,-2.119251 3.32228,-2.119251 z m -12.08091,0.146245 c 0.0894,0.08952 0.15447,0.956444 0.14417,1.926497 -0.0183,1.726605 -0.18787,2.455958 -1.22628,5.269446 -0.28197,0.763983 -0.62355,1.389062 -0.75861,1.389062 -0.27857,0 -0.32896,-3.887444 -0.0811,-6.258532 0.1457,-1.394009 0.25592,-1.626051 0.96221,-2.031401 0.43856,-0.251698 0.87024,-0.384592 0.95964,-0.295072 z m -10.3725,0.28267 c 0.0493,0.0589 0.10284,0.357889 0.19947,0.943611 0.24947,1.512013 0.0745,2.2138 -0.28267,1.134298 -0.1431,-0.432656 -0.18395,-1.14422 -0.0909,-1.580782 0.0798,-0.374863 0.12485,-0.556033 0.17415,-0.497127 z m 26.15603,0.948779 0.72037,0.6196 c 0.84388,0.725876 0.81362,0.754776 -1.25316,1.179773 -0.86939,0.178776 -1.76236,0.392514 -1.98437,0.475423 -0.65339,0.244006 0.0592,-0.509333 1.37563,-1.454691 z m -39.39191,0.295589 c 0.0985,0.09847 0.12933,0.224326 0.0687,0.280086 -0.0606,0.05576 -0.5268,0.175911 -1.03612,0.266651 l -0.92604,0.164848 0.85731,-0.445451 c 0.47149,-0.244975 0.93762,-0.364604 1.03612,-0.266134 z m 9.3002,0.03256 c 0.24946,-0.0025 0.35395,0.105312 0.5116,0.320911 0.1834,0.250821 0.33331,0.622 0.33331,0.825273 0,0.203273 0.42213,1.329551 0.93793,2.502689 0.51579,1.173138 0.9028,2.280628 0.8599,2.461349 -0.0429,0.18072 -0.49476,-0.202566 -1.00408,-0.852145 -0.50932,-0.649578 -1.74777,-1.915431 -2.75228,-2.812748 l -1.82625,-1.631425 1.55908,-0.47439 c 0.73707,-0.224397 1.13134,-0.337061 1.38079,-0.339514 z m -17.14675,0.223759 c 0,0.04246 -0.56554,0.60801 -1.25677,1.256771 l -1.25677,1.179256 1.17977,-1.256771 c 1.09642,-1.168186 1.33377,-1.377928 1.33377,-1.179256 z m 3.86798,0.716236 c 0.21825,0 0.32296,0.119062 0.23306,0.264583 -0.0899,0.145521 -0.34189,0.264583 -0.56017,0.264583 -0.21826,0 -0.32348,-0.119062 -0.23358,-0.264583 0.0899,-0.145521 0.34241,-0.264583 0.56069,-0.264583 z m 6.74377,1.061433 c 1.10978,-0.145532 1.3738,0.381919 1.42007,1.931666 0.0281,0.940797 0.24402,1.770892 0.63097,2.426725 0.32349,0.548272 0.55338,1.025887 0.51108,1.060917 -0.0423,0.03503 -1.07532,-0.815646 -2.29547,-1.889807 -1.22015,-1.074161 -2.50007,-2.023559 -2.84427,-2.109949 -0.3442,-0.08639 -0.62311,-0.233235 -0.62011,-0.326595 0.003,-0.09336 0.80547,-0.424939 1.78283,-0.736389 0.58114,-0.185188 1.04498,-0.308057 1.4149,-0.356568 z m -7.99176,2.434994 c 0.14765,0.09132 0.0233,0.366077 -0.2806,0.881083 -0.41945,0.710208 -0.52128,1.223926 -0.42065,2.116667 l 0.13281,1.178739 h -1.25729 c -0.69153,0 -1.64495,0.07784 -2.11873,0.1726 l -0.86145,0.172082 0.74363,-1.296562 c 1.31881,-2.300049 1.70281,-2.726169 2.71043,-3.006018 0.78432,-0.217833 1.2042,-0.309915 1.35185,-0.218591 z m 53.76726,0.623735 c 0.45412,0.280662 -0.0602,0.642338 -0.91364,0.642338 -1.19881,0 -2.11121,0.69093 -1.91978,1.453658 0.14053,0.559927 -0.003,0.638171 -2.15594,1.178222 -1.26873,0.31821 -3.17044,0.938224 -4.22609,1.377694 -1.05565,0.43947 -2.18928,1.119922 -2.51923,1.512052 -0.55576,0.660477 -0.68668,0.695522 -1.77612,0.480074 l -1.17616,-0.232544 0.64751,-0.504878 c 2.09273,-1.633179 13.3147,-6.354533 14.03945,-5.906616 z m -50.30339,0.642338 c 0.93094,0 1.30082,0.216303 3.10886,1.818493 1.12871,1.000201 2.34058,2.131296 2.69337,2.513542 0.5892,0.638396 0.59998,0.694346 0.1323,0.685746 -0.28003,-0.0052 -0.80668,-0.179605 -1.17048,-0.387573 -0.3638,-0.207968 -1.01385,-0.382373 -1.44487,-0.387573 -0.61468,-0.0074 -1.17097,-0.405084 -2.57969,-1.844849 -0.98781,-1.009577 -1.79627,-1.962078 -1.79627,-2.116667 0,-0.154588 0.47562,-0.281119 1.05678,-0.281119 z m 34.65267,0.941544 c -0.0167,0.443677 -0.76536,1.591646 -0.76636,1.175122 -5.2e-4,-0.218281 0.1734,-0.628064 0.38705,-0.910539 0.21366,-0.282473 0.38431,-0.401536 0.37931,-0.264583 z m -51.37826,1.445907 c 0.67265,-0.01154 -0.86786,2.212817 -3.28352,4.741312 -1.32869,1.39075 -2.91476,3.302436 -3.52485,4.24832 -0.83175,1.289549 -1.06272,1.521218 -0.92242,0.926042 0.29051,-1.232466 1.35785,-3.783359 2.14457,-5.125786 1.42657,-2.43426 4.14501,-4.765158 5.58622,-4.789888 z m 5.28081,1.036629 c 0.0791,0.02543 0.0853,0.08783 -0.0238,0.196887 -0.0997,0.09973 -0.62541,0.331341 -1.1684,0.514697 l -0.98754,0.333313 0.62477,-0.514697 c 0.42213,-0.347844 1.31756,-0.606484 1.55494,-0.5302 z m 37.00963,0.0155 c 0.0558,0 0.10129,0.238125 0.10129,0.529167 0,0.29104 -0.10788,0.529166 -0.23978,0.529166 -0.13193,0 -0.17739,-0.238126 -0.10129,-0.529166 0.0761,-0.291042 0.18398,-0.529167 0.23978,-0.529167 z m 6.0973,0.09198 c 0.0235,0.02218 -0.0203,0.367729 -0.0971,0.767912 -0.1166,0.606954 -0.27536,0.727604 -0.9586,0.727604 h -0.81907 l 0.91571,-0.767912 c 0.50383,-0.422366 0.93561,-0.749794 0.95911,-0.727604 z m 21.49895,0.135909 1.91461,1.010274 c 1.05295,0.555891 1.96095,1.15962 2.01745,1.34152 0.0565,0.181899 -0.0561,0.304425 -0.25011,0.272335 -0.19403,-0.03209 -2.93414,-0.121387 -6.08904,-0.198437 l -5.73608,-0.140043 4.07158,-1.143083 z m -40.87192,0.301274 c 0.64625,0 1.24852,0.119062 1.33842,0.264583 0.094,0.152149 -0.15242,0.266101 -0.57981,0.268201 -0.40877,0.002 -1.011,0.07556 -1.33842,0.163297 -0.43765,0.117288 -0.59532,0.04626 -0.59532,-0.268201 0,-0.329712 0.26939,-0.42788 1.17513,-0.42788 z m -17.92397,1.755965 c 2.03291,-0.03157 2.45841,0.04422 3.34656,0.596346 l 1.01751,0.633036 -1.93993,1.02061 c -1.06722,0.561576 -1.94207,1.020877 -1.94407,1.020092 -0.002,-7.86e-4 -0.36029,-0.393024 -0.79685,-0.871264 -0.43657,-0.478242 -1.13926,-1.1339 -1.56166,-1.457276 -0.4224,-0.323374 -0.69647,-0.659514 -0.60927,-0.746724 0.0872,-0.08721 1.20664,-0.17493 2.48771,-0.19482 z m 25.84338,1.421102 c 8.8514,0.0018 11.901,0.281508 16.00729,1.468127 3.0171,0.871866 7.20506,3.411314 10.18026,6.173267 2.78283,2.583374 5.44999,7.864255 6.68176,13.229165 0.53794,2.34298 0.66928,3.77108 0.79427,8.62841 0.0982,3.81814 0.0442,6.54908 -0.15762,7.9375 -0.16921,1.16416 -0.34507,3.06917 -0.39067,4.23334 -0.087,2.22402 -0.46323,4.18473 -2.25981,11.773951 -0.65234,2.75564 -1.04225,4.9713 -0.96325,5.47254 0.0846,0.53639 -0.0526,1.20508 -0.37724,1.84175 -0.28031,0.54982 -0.50953,1.14401 -0.50953,1.32033 0,0.17632 -0.34316,0.66407 -0.76274,1.08365 -0.59563,0.59562 -0.89019,1.31406 -1.3441,3.27836 -0.57008,2.46698 -0.59554,2.51425 -1.29398,2.41174 -0.85862,-0.12602 -1.52595,0.52313 -2.02262,1.96783 -0.27675,0.80501 -0.51323,1.0415 -1.17667,1.17719 -0.98808,0.20209 -1.68166,0.78765 -2.44998,2.06706 -0.31162,0.5189 -0.58812,0.97489 -0.61392,1.01389 -0.0258,0.039 -0.37675,-0.10017 -0.78031,-0.30954 -0.72973,-0.37859 -1.27536,-0.32356 -1.94458,0.19637 -0.19274,0.14975 -0.60946,0.78215 -0.92605,1.40508 l -0.57567,1.13223 v -3.23184 c 0,-3.00539 -0.052,-3.33757 -0.74207,-4.74286 -1.95845,-3.98819 -8.27607,-7.52798 -14.37639,-8.05533 -2.18737,-0.18909 -2.08422,-0.28548 -2.89646,2.68718 l -0.50591,1.85208 -0.1323,-1.98437 -0.13229,-1.98438 0.98082,-0.87075 c 1.23177,-1.09356 2.47699,-3.60027 2.98483,-6.00841 0.49658,-2.355381 0.49949,-6.914061 0.006,-10.318751 -0.21083,-1.4552 -0.3867,-3.4943 -0.3917,-4.53151 -0.009,-2.05038 -0.31213,-2.58645 -1.37615,-2.43396 -1.29583,0.18571 -1.55969,2.0538 -0.87075,6.17172 0.55312,3.30473 0.54872,8.81774 -0.009,10.992611 -1.25511,4.89636 -4.31449,6.45108 -7.01301,3.5636 -0.53981,-0.5776 -0.65627,-0.95954 -0.63407,-2.07584 0.015,-0.75234 0.11614,-1.68439 0.22479,-2.07171 0.16262,-0.57967 0.0787,-0.7822 -0.47284,-1.143601 -0.5359,-0.35114 -0.7839,-0.37803 -1.2392,-0.13436 -1.21129,0.648261 -1.66689,3.176201 -0.94257,5.229141 l 0.37568,1.06454 -1.50016,-0.1354 c -2.01186,-0.18152 -5.53051,0.51179 -7.66362,1.50999 -2.26604,1.06041 -4.78817,2.95357 -7.03264,5.27875 -1.21991,1.26378 -1.76335,1.68551 -1.65003,1.28054 0.46712,-1.66926 0.48054,-2.76062 0.0398,-3.20136 -0.71515,-0.71515 -1.85097,-0.56013 -2.62361,0.35812 l -0.67593,0.80305 0.15399,-1.66294 c 0.13525,-1.46096 0.0873,-1.72356 -0.39532,-2.15801 -0.53886,-0.48507 -1.15548,-0.49392 -2.58227,-0.0382 -0.51508,0.16449 -0.56983,0.0523 -0.73122,-1.49707 -0.0959,-0.92092 -0.35018,-2.32916 -0.56483,-3.12952 -0.21465,-0.80037 -0.39125,-2.17282 -0.39325,-3.04995 -0.002,-0.892141 -0.1592,-1.824701 -0.35761,-2.116661 -0.19507,-0.28704 -0.49272,-1.37798 -0.66145,-2.42466 -0.8768,-5.43889 0.17296,-13.11494 3.25768,-23.81663 2.74244,-9.51425 5.31396,-14.949449 8.81445,-18.630906 3.17445,-3.338559 5.0797,-4.410192 9.58132,-5.388818 2.49787,-0.543022 6.54905,-1.002167 7.26209,-0.823206 0.38215,0.09591 0.73866,0.0048 0.94206,-0.240295 0.27758,-0.334463 1.61777,-0.393724 8.82789,-0.392224 z m -33.81757,0.791683 c 0.0642,0 0.11678,0.119062 0.11678,0.264583 0,0.14552 -0.12597,0.264583 -0.28008,0.264583 -0.15408,0 -0.20669,-0.119063 -0.11679,-0.264583 0.0899,-0.145521 0.21589,-0.264583 0.28009,-0.264583 z m 58.69667,0.633553 c 0.0126,0.07543 -0.0517,0.240546 -0.18707,0.532267 -0.37059,0.798535 -0.34934,0.796584 -1.37511,0.139526 l -0.79375,-0.508496 0.83819,-0.0015 c 0.46104,-7.66e-4 1.02038,-0.07122 1.24282,-0.15658 0.17293,-0.06635 0.26236,-0.0806 0.27492,-0.0052 z m 6.12831,0.243396 c 0.11923,-0.01633 0.96005,0.0026 2.62826,0.04186 2.66991,0.06277 3.85402,0.213312 5.29167,0.673343 l 1.85208,0.592729 -1.05833,0.31936 c -0.58208,0.1756 -1.55981,0.57692 -2.17248,0.891936 -1.43561,0.738149 -1.77334,0.74294 -1.38596,0.01912 0.37532,-0.701295 0.13224,-1.709947 -0.47387,-1.965772 -0.25592,-0.108016 -1.5967,-0.289873 -2.97915,-0.404109 -1.21907,-0.100735 -1.82145,-0.152134 -1.70222,-0.168465 z m -62.30783,1.276407 c 0.44368,-0.05168 1.03025,0.0826 1.91772,0.38499 1.30825,0.445756 1.63977,0.729893 1.36684,1.171505 -0.0983,0.159063 -0.35765,0.03509 -0.63045,-0.301791 -0.43957,-0.542854 -0.53762,-0.555341 -1.89911,-0.235644 -0.78957,0.185404 -1.64393,0.444781 -1.89859,0.576192 -0.60774,0.313626 -0.58453,0.07568 0.0842,-0.863513 0.31506,-0.442469 0.61569,-0.680056 1.05936,-0.731739 z m -4.57129,1.672767 c 0.28256,0.282565 -0.63699,1.257098 -1.86242,1.974039 -0.76484,0.447474 -1.98592,1.251271 -2.71353,1.786455 l -1.32292,0.973067 1.32292,-1.401982 c 1.20878,-1.281331 4.34375,-3.563782 4.57595,-3.331579 z m 64.4772,0.871264 c 0.3621,0.06922 0.59326,0.231305 0.51366,0.360185 -0.17058,0.276011 -0.74435,0.309325 -0.9958,0.05788 -0.36171,-0.361714 -0.15593,-0.540038 0.48214,-0.418063 z m 12.62145,0.06925 c 0.24607,-0.0022 0.52092,0.114929 0.61082,0.260449 0.20695,0.334856 -0.14331,0.334856 -0.66146,0 -0.34205,-0.221031 -0.33493,-0.256949 0.0506,-0.260449 z m -8.50749,1.318782 c 0.16249,0 -0.0711,0.308492 -0.51883,0.68523 -0.90729,0.763434 -1.01564,1.29943 -0.39998,1.979724 0.25396,0.280626 0.31212,0.520871 0.14986,0.621151 -0.28141,0.173925 -1.62212,-1.410231 -1.62212,-1.916679 0,-0.306593 1.85578,-1.369426 2.39107,-1.369426 z m -63.64159,0.280603 c 0.22507,0.0521 0.0962,0.39498 -0.32763,1.042314 -0.73111,1.116685 -0.86981,1.205755 -1.27383,0.816488 -0.13824,-0.133199 -0.5488,-0.286381 -0.9126,-0.340031 -0.58834,-0.08675 -0.50886,-0.176797 0.71882,-0.815971 0.99113,-0.516016 1.57016,-0.754899 1.79524,-0.7028 z m 68.63147,0.553455 1.5353,0.472839 c 1.84064,0.56691 3.51917,1.355185 3.51917,1.652613 0,0.230189 -0.65547,0.225532 -4.28294,-0.03049 -1.26432,-0.08923 -2.3701,-0.233247 -2.4567,-0.319877 -0.0866,-0.08663 0.25711,-0.52148 0.76378,-0.966349 z m -3.35897,4.288112 c 0.31279,0.0137 0.71149,0.0648 1.21956,0.14366 1.02918,0.15968 2.34754,0.29042 2.92954,0.29042 0.582,0 1.13173,0.11906 1.22163,0.26458 0.10503,0.16994 -0.82426,0.26459 -2.59777,0.26459 -2.13175,0 -2.83649,0.0905 -3.09077,0.39687 -0.47304,0.56998 -0.79462,0.48923 -0.78962,-0.19844 0.006,-0.9059 0.16906,-1.20282 1.10743,-1.16168 z m -67.78656,0.0326 c 0,0.16044 -0.77673,1.76119 -0.9493,1.95647 -0.0485,0.0549 -0.55824,0.18589 -1.13275,0.29094 -0.92266,0.16872 -1.0762,0.12157 -1.31619,-0.40514 -0.24873,-0.5459 -0.16696,-0.64055 0.9679,-1.12035 1.61234,-0.68165 2.43034,-0.9248 2.43034,-0.72192 z m -9.86142,0.44907 c 0.12426,-0.0748 0.2761,-0.003 0.48215,0.19947 0.13825,0.1358 0.7274,0.28463 1.30948,0.33073 l 1.05833,0.0837 -2.4474,2.45979 c -1.34607,1.35286 -2.44739,2.3254 -2.44739,2.16111 0,-0.1643 0.34786,-1.09264 0.77308,-2.06292 0.42523,-0.97028 0.85508,-2.09165 0.95498,-2.49184 0.0958,-0.38404 0.19252,-0.60529 0.31677,-0.68006 z m 84.45273,3.0272 c 1.95508,0.0192 3.85856,0.10308 3.78116,0.23255 -0.087,0.14552 -0.55559,0.88967 -1.04128,1.65364 -0.48568,0.76399 -0.96865,1.37279 -1.07331,1.35289 -0.46423,-0.0883 -5.86171,-2.97962 -5.75728,-3.08405 0.12896,-0.12895 2.13563,-0.17427 4.09071,-0.15503 z m -76.79273,1.54616 c 0.026,0.009 -0.31652,1.0565 -0.76119,2.32803 -0.71385,2.04124 -0.88299,2.31148 -1.44488,2.31148 -0.35,0 -1.06404,0.17859 -1.58646,0.39688 -0.52242,0.21828 -1.07298,0.39687 -1.2237,0.39687 -0.15073,0 0.90535,-1.22592 2.34714,-2.72438 1.4418,-1.49845 2.64309,-2.71788 2.66909,-2.70888 z m 70.6515,0.44545 c 0.12017,-1.2e-4 0.39578,0.16272 0.9307,0.48886 l 0.86609,0.52814 -0.82889,0.001 c -0.60701,7.3e-4 -0.86606,-0.14068 -0.96738,-0.52813 -0.0854,-0.32662 -0.12068,-0.48977 -5.2e-4,-0.4899 z m -75.60262,0.6997 c 0.0876,-0.017 0.0517,0.0555 -0.1235,0.22635 -4.51887,4.40567 -5.41851,5.17756 -5.57124,4.77955 -0.325867,-0.84922 0.0555,-1.36309 1.99936,-2.69286 2.05798,-1.40779 3.43248,-2.26213 3.69538,-2.31304 z m 82.44923,3.33572 c 0.39171,0.0602 0.79799,0.21911 1.43247,0.50901 l 1.45521,0.66508 -1.05833,-0.002 c -0.58208,-9.2e-4 -1.83225,-0.19285 -2.77813,-0.42685 l -1.71979,-0.42581 1.32292,-0.23771 c 0.5768,-0.10367 0.95395,-0.14188 1.34565,-0.0817 z m -5.97586,2.03915 1.38906,0.40979 c 1.77408,0.52327 1.85648,0.62012 0.52865,0.62012 -0.59443,0 -1.26895,0.0724 -1.49913,0.16071 -0.31429,0.1206 -0.41858,-0.007 -0.41858,-0.51469 z m 5.67304,3.94033 c 1.24552,0 2.26446,0.0915 2.26446,0.20309 0,0.29248 -4.19882,0.33109 -4.37854,0.0403 -0.0871,-0.14094 0.80298,-0.24339 2.11408,-0.24339 z m -60.54359,1.40043 c -3.54517,-0.0648 -7.2777,0.49862 -9.71517,1.54719 -1.41953,0.61067 -1.95021,1.2667 -1.6893,2.08876 0.26124,0.82308 1.19902,0.86573 3.32848,0.1509 2.5605,-0.85954 6.41019,-1.323 9.10383,-1.09606 2.8159,0.23724 5.38572,0.83204 6.35465,1.47071 0.95412,0.62891 1.7984,0.6676 2.358,0.10801 1.54936,-1.54937 -1.0299,-3.17949 -6.31279,-3.98994 -1.08521,-0.16648 -2.24598,-0.25798 -3.4277,-0.27957 z m 55.39972,0.18707 c 0.14552,0 0.26458,0.17168 0.26458,0.38137 0,0.2097 -0.11906,0.45477 -0.26458,0.54467 -0.14552,0.0899 -0.26459,-0.0817 -0.26459,-0.38137 0,-0.29963 0.11907,-0.54467 0.26459,-0.54467 z m -75.93542,0.39687 c 0.14552,-0.0899 0.26458,0.0153 0.26458,0.23358 0,0.21828 -0.11906,0.47027 -0.26458,0.56017 -0.14552,0.0899 -0.26458,-0.0148 -0.26458,-0.23306 0,-0.21828 0.11906,-0.47079 0.26458,-0.56069 z m -7.806237,0.44132 c 0.0477,0.0485 0.0282,0.39287 -0.0434,0.76533 -0.0716,0.37246 -0.35882,0.81978 -0.6382,0.99425 -0.43756,0.27327 -0.50798,0.24384 -0.50798,-0.21394 0,-0.4816 0.98153,-1.75685 1.18959,-1.54564 z m 4.743377,0.35243 -1.42524,1.5875 c -0.78392,0.87312 -1.52323,1.70041 -1.64331,1.83865 -0.13713,0.15818 -0.21859,0.15535 -0.21859,-0.008 0,-0.1428 0.73982,-0.9706 1.64383,-1.83917 z m 56.64099,0.0191 c -5.95634,0.0283 -8.1171,0.68703 -7.70031,2.34766 0.20954,0.83486 1.08235,1.0804 2.44378,0.6873 1.63933,-0.47333 6.36987,-0.63947 8.56382,-0.30076 1.3477,0.20806 2.62106,0.63593 3.96875,1.33325 2.77292,1.43477 3.70416,1.35717 3.70416,-0.3085 0,-0.98474 -1.57208,-1.99522 -4.70152,-3.02101 -2.14205,-0.7021 -2.59834,-0.75544 -6.27868,-0.73794 z m -65.846107,0.75448 c 0.0389,-0.0226 0.0599,0.0274 0.0599,0.15244 0,0.21828 -0.10232,0.63501 -0.22738,0.92605 -0.14329,0.33355 -0.22737,0.38245 -0.22737,0.13229 0,-0.21828 0.1023,-0.635 0.22737,-0.92604 0.0717,-0.16677 0.1285,-0.26209 0.16744,-0.28474 z m 95.849437,0.13746 c 0.0552,-0.006 0.11932,0.0196 0.18655,0.0868 h 5.2e-4 c 0.0879,0.0879 0.10936,0.3102 0.0481,0.49403 -0.0896,0.26893 -0.15163,0.26869 -0.31833,-10e-4 -0.1655,-0.2678 -0.0823,-0.56266 0.0832,-0.57981 z m -4.4142,0.92862 c 0.0728,-0.0728 0.28532,0.0517 0.47232,0.27699 0.18699,0.22532 0.28054,0.46928 0.20774,0.54208 -0.0728,0.0728 -0.28532,-0.0522 -0.47232,-0.2775 -0.18699,-0.22532 -0.28054,-0.46877 -0.20774,-0.54157 z m -94.356507,0.7612 c -0.0857,0.2661 -0.39847,1.43412 -0.69505,2.5957 -0.45969,1.80044 -0.81589,2.48677 -2.41536,4.65243 -1.03193,1.39722 -2.33648,3.2648 -2.89853,4.15065 -0.56206,0.88586 -1.02323,1.52744 -1.02423,1.42524 -0.004,-0.26233 4.91293,-9.51631 6.15674,-11.58844 0.56777,-0.94589 0.96213,-1.50168 0.87643,-1.23558 z m 12.215787,0.42684 -0.12299,1.26453 c -0.16157,1.66696 -0.20973,1.82592 -0.44235,1.44952 -0.108,-0.17473 -0.42759,-0.31781 -0.71004,-0.31781 -0.70179,0 -0.63659,-0.23265 0.39171,-1.3963 z m 22.44824,0.57723 c -0.43367,-0.0489 -0.9134,0.0696 -1.46037,0.35243 -1.00719,0.52084 -1.66335,2.01432 -1.81488,4.13205 -0.14903,2.083 0.24057,3.46631 1.18546,4.20956 2.12776,1.6737 3.91397,-0.63849 3.91397,-5.06687 0,-2.06254 -0.0644,-2.36181 -0.64131,-2.97656 -0.36166,-0.38538 -0.7492,-0.60168 -1.18287,-0.65061 z m -27.551807,0.7767 c 0.17422,-0.034 0.19244,0.0306 -0.006,0.20619 -0.13824,0.12224 -0.70979,0.4967 -1.2702,0.83199 -0.87134,0.52129 -1.00544,0.54462 -0.92604,0.16071 0.0511,-0.24693 0.18336,-0.44003 0.29403,-0.42943 0.11066,0.0106 0.55146,-0.16169 0.97927,-0.38292 0.42494,-0.21976 0.75493,-0.35258 0.92914,-0.38654 z m 83.973687,0.88625 c 0.16677,0.10307 0.30334,0.3985 0.30334,0.65629 0,0.25779 0.28128,1.02479 0.62529,1.70429 l 0.6258,1.23506 h -0.60978 c -0.78407,0 -0.83008,-0.0907 -1.0573,-2.09909 -0.14016,-1.23877 -0.11042,-1.63441 0.11265,-1.49655 z m 6.73034,0.94981 h 1.68362 l -0.11679,0.79375 c -0.1173,0.79922 -0.41515,1.01885 -0.71779,0.52917 -0.0899,-0.14552 -0.56892,-0.26459 -1.06453,-0.26459 -0.63033,0 -0.98634,-0.15901 -1.18443,-0.52916 -0.26941,-0.50336 -0.20137,-0.52917 1.39992,-0.52917 z m -28.67887,0.82941 c -1.48744,0.0854 -2.59496,1.81553 -2.81327,4.53512 -0.17214,2.14452 0.35939,3.50381 1.56838,4.01216 1.25408,0.5273 2.19052,-0.0288 3.00912,-1.78697 1.25353,-2.69232 0.6664,-6.25013 -1.10484,-6.69468 -0.22651,-0.0568 -0.4469,-0.0778 -0.65939,-0.0656 z m -68.012897,1.41955 -0.154,1.19062 c -0.0846,0.65484 -0.24333,1.48828 -0.35295,1.85209 -0.19173,0.63807 -0.20005,0.63339 -0.20205,-0.13229 -0.001,-0.43656 0.15795,-1.27001 0.35346,-1.85209 z m 8.947247,0.1204 c 0.54327,-0.0616 1.03548,0.31036 1.66605,1.09503 l 0.87075,1.08314 -0.18604,2.95175 c -0.25709,4.08473 -1.44514,10.119048 -3.0949,15.717908 h -5.1e-4 c -0.58981,2.00169 -0.80552,2.17699 -1.979207,1.60869 -0.31083,-0.1505 -0.69778,-0.56454 -0.8599,-0.92036 -0.39217,-0.86171 -0.39072,-12.459018 0.003,-15.917888 0.29596,-2.60275 0.3036,-2.62132 1.60972,-4.11035 0.834007,-0.95081 1.428187,-1.44628 1.971447,-1.50792 z m 87.98947,2.80397 c 0.0548,-0.0958 0.16193,0.0487 0.37103,0.34726 0.54816,0.78262 0.42714,3.17607 -0.53692,10.61899 -0.3864,2.983178 -0.74871,5.543028 -0.80511,5.688548 -0.24526,0.63236 -0.10316,-1.07783 0.40669,-4.8948 0.57986,-4.341098 0.52459,-6.786878 -0.17777,-7.871348 -0.32925,-0.50831 -0.33079,-0.59531 -0.0109,-0.59531 0.5101,0 0.69556,-0.58616 0.69556,-2.19677 0,-0.66429 0.003,-1.00079 0.0574,-1.09657 z m -3.89331,0.45888 c 0.0395,0.0896 0.76592,1.62285 0.87282,1.84227 0.0532,0.10914 -0.1213,0.20274 -0.38809,0.20774 -0.26679,0.005 -1.36281,0.35512 -2.43551,0.77825 l -1.95027,0.76946 0.16123,-0.97669 c 0.0888,-0.53727 0.16233,-1.25861 0.16433,-1.603 0.002,-0.50356 0.11111,-0.59795 0.55397,-0.48214 0.30289,0.0792 1.10095,-0.0219 1.77354,-0.22428 0.67259,-0.20242 1.23428,-0.34261 1.24798,-0.31161 z m -90.213097,0.24754 c 0.0378,0.0403 -0.0627,1.04678 -0.22324,2.23603 -0.26376,1.95389 -0.35191,2.17342 -0.91467,2.281 -0.43855,0.0838 -0.58326,0.016 -0.48886,-0.22996 0.0737,-0.19212 0.45438,-1.25191 0.84594,-2.35489 0.39157,-1.10297 0.74303,-1.97258 0.78083,-1.93218 z m -6.08283,0.53433 c 0.1747,0.19401 -0.6395,5.19863 -0.93741,5.76192 -0.80305,1.5184 -3.72085,5.969548 -6.54379,9.982848 -1.66332,2.36472 -3.0713,4.29948 -3.129,4.29948 -0.34287,0 2.83587,-7.06241 4.90564,-10.899068 1.84295,-3.41623 5.53435,-9.33421 5.70456,-9.14518 z m 104.804967,1.34617 c 0.34324,0.34325 0.8826,4.63696 0.8816,7.01353 -0.002,3.464578 -0.50317,6.866778 -2.90938,19.754348 -1.03245,5.52978 -1.92191,10.17323 -1.97611,10.31875 -0.31174,0.83742 -0.008,-1.40696 1.04232,-7.71685 2.25777,-13.55998 3.18194,-21.695738 2.99103,-26.331208 -0.0711,-1.72639 -0.0845,-3.09357 -0.0295,-3.03857 z m -7.50083,2.7404 -0.15916,3.01791 c -0.32326,6.130578 -2.99803,14.618818 -5.43223,17.239248 -0.95533,1.02842 -1.34439,0.94329 -1.20923,-0.26458 0.0611,-0.54571 0.34824,-3.88224 0.63821,-7.41453 0.28997,-3.5323 0.6434,-7.223238 0.78496,-8.202088 0.14156,-0.97884 0.25952,-1.93487 0.26252,-2.12442 0.006,-0.39518 2.87014,-1.80289 4.21369,-2.07119 z m -91.644017,5.50664 0.008,3.100588 c 0.006,2.45352 -0.0646,3.07276 -0.33951,2.96726 -0.47149,-0.18093 -0.87191,0.33217 -2.9037,3.72174 h -5.2e-4 c -1.08491,1.80993 -1.99145,3.02202 -2.3983,3.20548 -0.654,0.29489 -0.65423,0.29428 0.262,-1.71979 0.50411,-1.10814 1.4648,-3.02689 2.13475,-4.26382 0.66996,-1.23693 1.67248,-3.32052 2.22777,-4.63021 z m -6.64817,1.053678 c 0.19192,0.19191 -4.6093,9.31935 -6.08128,11.56106 -0.83188,1.26688 -2.36901,3.41151 -3.41582,4.76611 -2.35825,3.05166 -2.4728,3.17196 -2.22312,2.33061 0.10796,-0.3638 1.38325,-2.32583 2.83394,-4.36046 2.50192,-3.509 4.62378,-6.92747 7.50703,-12.09383 0.7058,-1.26469 1.32645,-2.25629 1.37925,-2.20349 z m 18.602997,7.16184 c 0.13513,-0.14657 0.23151,0.3158 0.23151,1.10898 0,0.74812 -0.12172,1.43524 -0.27027,1.52704 -0.14856,0.0918 -0.63627,0.78333 -1.08417,1.53685 -0.44789,0.75352 -0.76033,1.19135 -0.69453,0.97307 0.6665,-2.21174 1.6316,-4.94433 1.81746,-5.14594 z m -11.463897,0.91881 c 0.25562,0.84191 1.80239,2.14367 2.86494,2.41122 0.93593,0.23568 1.07583,0.35922 0.95808,0.84749 -0.0758,0.31443 -0.34465,0.80967 -0.59738,1.10071 -0.25273,0.29104 -0.66291,1.15439 -0.91105,1.91823 -0.40399,1.24383 -0.51589,1.37226 -1.06867,1.23352 -0.48942,-0.12283 -0.88514,0.11051 -1.91048,1.12499 -0.71138,0.70383 -1.48712,1.57717 -1.72393,1.94097 -0.38949,0.59832 -0.41727,0.60681 -0.29145,0.0868 0.0765,-0.31618 0.64277,-1.16548 1.25884,-1.88723 1.88045,-2.203 2.12092,-3.33908 0.87281,-4.12636 -0.33004,-0.20819 -0.63124,-0.12881 -1.25419,0.33176 l -0.81958,0.60617 0.50539,-1.01131 c 0.27799,-0.55621 0.84106,-1.90139 1.2516,-2.98948 0.41053,-1.08809 0.79977,-1.80247 0.86507,-1.5875 z m 41.346307,0.45992 c 0.27051,-0.011 0.5484,0.063 0.9772,0.21601 0.5442,0.19423 1.19797,0.35883 1.45263,0.36483 0.65811,0.0165 0.59857,0.18211 -0.66146,1.83968 -0.98378,1.29416 -1.13505,1.404 -1.20975,0.87747 -0.047,-0.33101 -0.37508,-0.79172 -0.72915,-1.02371 -0.5547,-0.36347 -0.76147,-0.37326 -1.49293,-0.0703 -0.4669,0.19339 -1.59731,0.92519 -2.51199,1.62626 -0.91469,0.70108 -1.66295,1.16509 -1.66295,1.03094 0,-0.13415 0.89296,-0.92777 1.98437,-1.76372 1.0914,-0.83595 1.98816,-1.71216 1.99316,-1.94665 0.005,-0.23449 0.42255,-0.6198 0.92863,-0.85679 0.39877,-0.18677 0.66173,-0.28302 0.93224,-0.29404 z m -49.566997,0.0718 c 0.4344,-0.37017 -1.74092,3.26145 -3.00602,5.0183 -1.5223,2.11402 -2.63308,3.51946 -2.35438,2.97914 0.26491,-0.51357 5.17542,-7.83981 5.3604,-7.99744 z m 42.531767,0.55862 c 0.0598,0.0598 -0.74783,0.78566 -1.79472,1.61334 -1.04688,0.82768 -2.70691,2.2367 -3.68918,3.13107 -0.98226,0.89439 -1.78594,1.50877 -1.78594,1.36478 0,-0.62783 3.62666,-4.11816 5.33146,-5.13095 1.00654,-0.59798 1.87858,-1.03804 1.93838,-0.97824 z m 55.69376,2.8267 c 0.004,0.19327 -0.65632,4.3596 -1.46761,9.25835 -0.8113,4.89877 -1.50738,8.93896 -1.54668,8.97826 -0.19802,0.19801 0.16765,-9.54519 0.40928,-10.90579 0.26271,-1.4793 0.2438,-1.60805 -0.29817,-2.0469 -1.20704,-0.97741 -2.36452,0.60009 -2.40812,3.28145 l -0.0274,1.66657 -0.35812,-1.5875 c -0.19702,-0.87312 -0.364,-1.9466 -0.37,-2.38539 -0.0104,-0.72135 0.11528,-0.84229 1.30844,-1.26607 1.57436,-0.55916 2.80648,-1.75952 3.9269,-3.82457 0.45351,-0.83586 0.82747,-1.36167 0.83147,-1.16841 z m -84.58553,0.41031 c 0.0278,-0.0278 0.0647,0.009 0.10697,0.11472 0.0764,0.191 0.0667,0.41957 -0.0212,0.50747 -0.088,0.0879 -0.14999,-0.0683 -0.13849,-0.34727 0.006,-0.15411 0.0249,-0.2471 0.0527,-0.27492 z m 44.76522,0.53279 1.32654,1.35754 c 0.72977,0.74673 2.01166,1.81174 2.8484,2.36678 0.83675,0.55503 1.52404,1.201 1.52704,1.43505 0.003,0.23406 0.23368,0.92715 0.51211,1.54048 0.60174,1.3255 1.50738,1.69281 2.52698,1.02474 0.5315,-0.3482 0.65939,-0.3611 0.65939,-0.0651 0,0.20201 0.25224,0.68805 0.56017,1.07952 0.7697,0.97851 1.73952,0.83632 2.57142,-0.37621 l 0.63562,-0.92604 -0.16536,1.85209 c -0.18769,2.10536 0.1566,3.12408 1.10122,3.25974 0.32378,0.0465 0.5886,0.2352 0.5886,0.4191 0,0.62881 -0.32442,0.65826 -1.08056,0.0992 -0.41591,-0.30749 -1.11502,-0.55862 -1.55391,-0.55862 -0.80036,0 -1.85958,0.7112 -1.86758,1.25367 -0.002,0.15935 -0.11405,0.46376 -0.24857,0.67644 -0.20123,0.31813 -0.34446,0.2595 -0.80873,-0.33073 -0.82662,-1.05088 -2.15617,-0.99364 -3.28817,0.14211 -0.47138,0.47294 -0.91909,1.03849 -0.99529,1.25677 -0.11342,0.32497 -0.25895,0.2868 -0.80202,-0.21187 -0.51086,-0.46912 -0.83823,-0.56857 -1.42524,-0.43201 -0.98024,0.22804 -3.01118,1.38385 -3.01118,1.71359 0,0.60592 -0.47781,0.17985 -0.62529,-0.55759 -0.0892,-0.446 -0.52645,-1.175 -0.97151,-1.62006 -1.13515,-1.13515 -2.38009,-0.93614 -3.76101,0.601 l -0.99219,1.10432 v -0.84542 c 0,-1.12347 -0.38173,-1.77888 -1.31775,-2.26291 -1.12946,-0.58407 -2.09299,-0.49144 -3.25252,0.31212 l -1.02629,0.71159 -0.66042,-0.84388 c -0.73163,-0.93485 -1.40724,-1.05208 -2.57039,-0.44545 -0.96391,0.5027 -1.2268,0.49828 -1.2268,-0.0217 0,-0.60989 -1.45437,-1.96423 -2.10943,-1.96423 -0.30946,0 -0.91373,0.18158 -1.34307,0.4036 -0.42933,0.222 -0.78083,0.28578 -0.78083,0.14159 0,-0.58878 -1.69975,-2.14498 -2.65565,-2.43138 l -1.01958,-0.3054 0.64027,-1.26298 c 0.48691,-0.96085 0.82765,-1.3038 1.42524,-1.43505 0.43197,-0.0949 1.23852,-0.49832 1.79265,-0.89607 1.07075,-0.76859 1.53769,-0.71537 2.66392,0.30386 0.88912,0.80465 3.94959,2.05171 5.99602,2.44326 2.68006,0.51281 6.49333,0.48117 11.36623,-0.0951 3.49045,-0.41278 3.9933,-0.53494 4.43177,-1.07643 0.62793,-0.77543 0.62034,-0.95578 -0.0677,-1.64382 -0.62352,-0.62353 -0.63624,-0.62299 -5.78776,0.17621 -3.5908,0.55709 -8.69036,0.41843 -11.04583,-0.30024 -0.9093,-0.27743 -1.65345,-0.57462 -1.65365,-0.66042 -2.1e-4,-0.0858 0.31916,-0.30146 0.71004,-0.47956 0.39087,-0.17809 1.1478,-0.6697 1.68155,-1.09244 l 0.97048,-0.76843 0.29404,0.64544 c 0.65359,1.43447 2.45713,1.09116 4.3496,-0.82837 l 1.15549,-1.17202 0.64492,0.99115 c 1.2345,1.89873 3.64883,1.70781 4.64003,-0.3669 z m 30.78934,0.93017 c 0.0921,-0.0384 0.13738,0.27488 0.0827,0.96273 -0.0515,0.64808 -0.21363,1.17823 -0.3607,1.17823 -0.165,0 -0.19778,-0.37991 -0.0853,-0.99219 0.13236,-0.72026 0.27116,-1.11033 0.36329,-1.14877 z m -90.506107,1.62058 c 0.11582,-0.005 0.0129,0.38763 -0.31832,1.18029 -0.44819,1.07266 -4.3902,7.06464 -6.51899,9.90895 -1.51682,2.02667 -3.35199,3.91545 -3.09903,3.18947 0.076,-0.21828 0.29384,-1.27099 0.48421,-2.33939 0.28036,-1.57344 0.45504,-1.98407 0.91932,-2.16059 0.67841,-0.25793 6.02598,-6.33457 7.53856,-8.56641 0.54404,-0.80272 0.87844,-1.20684 0.99425,-1.21232 z m 32.444527,0.41186 c 0.12065,0.0475 0.23942,0.27846 0.47594,0.73949 0.26032,0.50742 0.59541,0.99765 0.74466,1.08985 0.14925,0.0923 0.20256,0.27899 0.11886,0.41445 -0.32219,0.52132 -0.90854,0.11285 -1.26194,-0.8785 -0.0908,-0.25467 -0.36593,-0.46302 -0.61133,-0.46302 -0.40385,0 -0.39972,-0.0512 0.045,-0.54261 0.24549,-0.27126 0.36821,-0.40716 0.48885,-0.35966 z m -4.69015,0.1974 c 0.0689,0.0689 -0.12605,0.96987 -0.43356,2.00246 -0.56654,1.90232 -0.80151,2.30012 -0.80151,1.35806 0,-0.64153 1.06266,-3.53293 1.23507,-3.36052 z m -3.44888,1.04903 c 0.0525,0.0525 -0.0144,0.74101 -0.14883,1.52962 -0.1344,0.78863 -0.31826,1.9887 -0.40876,2.66703 -0.24809,1.8602 -0.83944,1.85703 -0.80254,-0.004 0.026,-1.30963 1.05885,-4.49379 1.36013,-4.19251 z m -4.29277,1.00097 c 0.0593,0.0606 -0.0605,0.46727 -0.26613,0.90383 l -0.37414,0.79375 0.15555,-0.79324 c 0.16217,-0.82823 0.30275,-1.09038 0.48472,-0.90434 z m 62.51143,3.41737 c 0.0842,0 0.084,0.3455 -5.1e-4,0.76791 -0.18653,0.93262 -1.23355,2.72137 -1.23455,2.10995 -0.001,-0.5101 1.01497,-2.87786 1.23506,-2.87786 z m 6.26939,0.0114 c 0.0219,-0.0839 0.052,-0.0726 0.0853,0.0548 0.0666,0.25466 0.0666,0.67138 0,0.92604 -0.0665,0.25466 -0.12093,0.0463 -0.12093,-0.46302 0,-0.25466 0.0137,-0.43387 0.0357,-0.51779 z m -100.711677,0.0455 c 0.041,-0.0185 0.0635,0.005 0.063,0.0754 -0.001,0.14552 -0.24555,0.56224 -0.54312,0.92604 -0.35936,0.43934 -0.44881,0.48376 -0.26716,0.13229 0.3345,-0.64725 0.62412,-1.07821 0.74724,-1.13378 z m 20.05614,0.5023 c 0.0498,-0.012 0.0433,0.0401 -0.0264,0.16278 -0.48742,0.85811 -4.22848,4.69139 -4.04678,4.14651 0.0534,-0.16017 1.09498,-1.35079 2.31459,-2.64583 0.95547,-1.01457 1.60909,-1.62746 1.75855,-1.66346 z m 9.993697,0.0336 c 0.024,0.13008 -0.0337,0.55849 -0.17725,1.25935 -0.14904,0.7276 -0.36878,1.32292 -0.48834,1.32292 -0.21796,0 -0.0563,-0.9367 0.35398,-2.05052 0.18183,-0.49361 0.2876,-0.66184 0.31161,-0.53175 z m 67.11477,0.33331 -0.16123,1.32292 c -0.17958,1.47568 -0.27769,1.70692 -0.48989,1.15393 -0.0796,-0.20734 0.0344,-0.84932 0.25321,-1.42679 z m -54.41993,0.49713 c 0.0278,-0.0278 0.0647,0.009 0.10697,0.11472 0.0764,0.191 0.0667,0.41956 -0.0212,0.50746 -0.088,0.0879 -0.14999,-0.0684 -0.13849,-0.34727 0.006,-0.15411 0.0249,-0.2471 0.0527,-0.27491 z m 47.04105,1.22266 c 0.48828,0 0.22901,1.37119 -0.5519,2.91817 -0.8923,1.76758 -1.1873,2.00056 -0.91106,0.71985 0.30473,-1.41282 1.19951,-3.63802 1.46296,-3.63802 z m -94.296047,0.26458 c 0.21885,-0.21828 -0.60831,1.15094 -1.83813,3.04271 -1.22982,1.89177 -2.42924,3.79678 -2.66547,4.23334 -0.45525,0.84128 -2.27917,3.02846 -2.28617,2.74091 -0.005,-0.23072 6.29041,-9.51891 6.78977,-10.01696 z m 52.213347,0.0372 c 0.0971,0.003 0.17401,0.0842 0.27543,0.24443 0.13221,0.20892 0.24243,0.5852 0.24443,0.83613 0.002,0.25091 -0.3414,0.63475 -0.76377,0.85317 -0.68699,0.35523 -0.78444,0.35393 -0.92501,-0.0124 -0.17952,-0.46782 0.14234,-1.17557 0.77256,-1.6986 0.18207,-0.15109 0.29927,-0.22588 0.39636,-0.22273 z m -22.679237,0.49971 c 0.0598,0.0685 0.18052,0.50377 0.26872,0.96738 h 5.2e-4 c 0.11712,0.61588 0.0225,1.00786 -0.35037,1.45521 l -0.51005,0.61237 -0.005,-1.19063 c -0.004,-1.09235 0.33555,-2.14341 0.59634,-1.84433 z m 88.251457,0.27079 c 0.10134,0.30402 -0.12105,2.00071 -1.17719,8.98188 -1.28934,8.52271 -2.45471,13.66121 -4.49998,19.84375 -0.64989,1.96453 -1.54136,4.22671 -1.98076,5.02708 -0.4394,0.80036 -0.71259,1.21708 -0.60771,0.92604 2.17248,-6.02884 2.89833,-8.72442 4.3403,-16.11323 2.27804,-11.67288 3.81703,-18.99043 3.92534,-18.66552 z m -121.366747,0.38292 -1.83296,2.24896 c -3.1273,3.83728 -4.91717,6.4124 -5.81463,8.36486 -0.4747,1.03273 -1.09979,2.09206 -1.38907,2.35386 -0.70099,0.63438 -0.6676,0.42978 0.26769,-1.63297 1.2523,-2.76188 3.43956,-5.82137 6.2115,-8.68888 z m 60.581827,0.68678 c 0.0166,0.0589 0.0694,0.43439 0.11679,0.83457 0.0956,0.80607 -0.0817,0.89465 -0.77514,0.38758 -0.43928,-0.32118 -0.43481,-0.3672 0.0816,-0.83458 0.30068,-0.27212 0.56011,-0.44647 0.57671,-0.38757 z m 49.25126,0.40411 c 0.15794,0.0993 0.19585,0.54785 0.19585,1.6955 0,1.01408 -0.0494,1.84382 -0.11007,1.84382 -0.12413,0 -0.68368,-2.47731 -0.68368,-3.02721 0,-0.19555 0.1786,-0.42418 0.39688,-0.50798 0.0823,-0.0316 0.14837,-0.0372 0.20102,-0.004 z m -82.792877,0.24288 -0.17983,0.89917 c -0.0989,0.49442 -0.25388,1.74191 -0.34468,2.77244 -0.0908,1.03054 -0.32879,2.06267 -0.52865,2.2934 -0.62082,0.71671 -1.94847,3.65836 -2.35438,5.21673 -0.55098,2.11536 -0.4895,6.21408 0.13952,9.30073 1.12998,5.54489 4.60471,13.7247 9.00617,21.20284 1.062777,1.80567 2.174107,3.71291 2.469617,4.23798 l 0.53692,0.95447 -1.9017,2.09599 c -2.264507,2.49577 -5.863247,7.0747 -7.880647,10.0273 l -1.45314,2.12648 -4.02508,0.71417 c -4.69799,0.83335 -10.46632,1.58624 -16.57677,2.16318 -2.39197,0.22584 -4.74035,0.41031 -5.2188,0.41031 -0.83971,0 -0.86041,-0.0253 -0.59324,-0.72761 0.41383,-1.08789 1.43206,-5.96393 2.33422,-11.17864 1.84244,-10.64975 2.66142,-20.5717 2.15077,-26.05061 -0.1622,-1.74039 -0.3618,-3.43199 -0.4439,-3.75894 -0.12243,-0.48779 -0.0141,-0.62709 0.6041,-0.7767 0.41437,-0.10029 1.76547,-0.68848 3.0024,-1.3069 5.68461,-2.8421 14.06244,-9.32719 15.74271,-12.18633 0.35062,-0.59661 1.33148,-1.72771 2.18023,-2.51354 1.8983,-1.75758 2.01745,-1.94465 1.65933,-2.6138 -0.45561,-0.85131 -1.4145,-0.63882 -3.02152,0.67024 -0.81371,0.66284 -1.47678,1.10932 -1.47278,0.99219 0.004,-0.11714 0.6634,-0.68916 1.46554,-1.27124 0.80214,-0.58208 2.18848,-1.65096 3.08095,-2.37556 z m 17.850067,0.77618 c 0.0815,0.0815 4.7e-4,0.29492 -0.18035,0.47439 -0.26131,0.25936 -0.29189,0.22877 -0.14831,-0.14831 0.0994,-0.26092 0.24716,-0.40758 0.32866,-0.32608 z m 55.73562,0.005 c 0.0826,0.0338 0.2029,0.25423 0.43667,0.69298 0.26271,0.49307 0.48286,0.98588 0.48886,1.09502 0.006,0.10914 -0.28681,0.19844 -0.65061,0.19844 -0.69831,0 -0.808,-0.352 -0.48524,-1.55804 0.0828,-0.30926 0.12776,-0.46218 0.21032,-0.4284 z m -30.40176,0.3793 c 0.23144,-0.0482 0.38189,0.48252 0.38189,1.45935 0,0.79178 -0.10272,1.50308 -0.22841,1.58078 -0.25287,0.15628 -0.6322,-2.43346 -0.40928,-2.79415 0.0925,-0.14968 0.17865,-0.22989 0.2558,-0.24598 z m -54.057167,0.0605 c 0.005,0.0234 -0.0338,0.0964 -0.12195,0.22376 -1.75164,2.53018 -2.95633,3.96875 -3.32331,3.96875 -0.22344,0 -0.83448,0.30947 -1.35754,0.6873 -0.52496,0.37921 -0.26584,0.0532 0.57826,-0.7276 0.84104,-0.77801 2.25234,-2.18881 3.13624,-3.1347 0.66292,-0.70941 1.07336,-1.08758 1.0883,-1.01751 z m -8.7235,0.35606 -0.21187,1.05833 c -0.11643,0.58208 -0.2814,1.56504 -0.3669,2.18384 -0.13887,1.00559 -0.40149,1.34688 -2.47168,3.21376 -1.44339,1.30164 -3.3378,2.66112 -5.02709,3.60753 -1.49096,0.83529 -3.12767,1.76489 -3.63699,2.06603 -1.12733,0.66656 -1.20808,0.78634 2.33423,-3.45922 1.57497,-1.88766 3.12117,-3.42666 4.23953,-4.21938 0.96827,-0.68634 2.52095,-1.96864 3.45044,-2.84944 z m 57.159307,0 -0.46871,0.7276 c -0.48283,0.75024 -0.67179,0.89246 -0.67179,0.50436 0,-0.12296 0.25642,-0.45038 0.56999,-0.7276 z m 48.60168,0 -0.14314,2.77812 c -0.0786,1.52797 -0.32146,4.56407 -0.54002,6.74688 -0.53694,5.36264 -0.76956,6.76082 -1.01234,6.08541 -0.10462,-0.29104 -0.42463,-1.13554 -0.71107,-1.87689 l -0.5209,-1.34772 0.57826,-1.29811 c 0.38866,-0.8728 0.64541,-2.16473 0.78393,-3.94394 0.11735,-1.50724 0.49853,-3.61364 0.88574,-4.8948 z m -37.1321,0.97668 c 0.2579,0.0581 0.46572,0.39181 0.65009,1.00717 0.27759,0.9265 0.25732,1.1233 -0.16278,1.5875 -0.60624,0.66986 -0.70855,0.66369 -1.40973,-0.0827 -0.71288,-0.75885 -0.71618,-0.9892 -0.0269,-1.86552 0.38339,-0.4874 0.69141,-0.7046 0.9493,-0.64647 z m 11.14764,0.31316 c 0.0121,0.0661 -0.0136,0.20946 -0.0775,0.42995 -0.10547,0.36381 -0.31079,0.78051 -0.45631,0.92604 -0.17637,0.17638 -0.2007,0.0441 -0.0729,-0.39688 0.10548,-0.3638 0.31078,-0.78052 0.4563,-0.92604 0.0882,-0.0882 0.13825,-0.0992 0.15038,-0.0331 z m -37.76514,0.42995 c 0.15408,0 0.20669,0.11906 0.11679,0.26458 -0.0899,0.14552 -0.21588,0.26458 -0.28008,0.26458 -0.0642,0 -0.11679,-0.11906 -0.11679,-0.26458 0,-0.14552 0.12597,-0.26458 0.28008,-0.26458 z m 18.26246,0.56379 c 0.14128,-0.0914 0.24287,0.003 0.24287,0.32142 0,0.19573 -0.23302,0.56652 -0.51779,0.82424 -0.50759,0.45936 -0.51178,0.45271 -0.20671,-0.35553 0.15923,-0.42185 0.34035,-0.69874 0.48163,-0.79013 z m 25.11371,0.17156 v 0.6749 c 0,0.74829 -0.26851,1.03118 -0.71624,0.75447 -0.20054,-0.12394 -0.1331,-0.38024 0.21136,-0.80563 z m -11.11354,0.0584 c 0.1751,0 0.89895,1.86358 0.75293,1.93838 -0.78475,0.4021 -1.14609,0.67702 -1.30225,0.99012 -0.10402,0.20856 -0.29518,0.65877 -0.42426,1.00097 -0.21062,0.55839 -0.27039,0.4817 -0.58601,-0.74982 l -0.35192,-1.37201 0.87592,-0.90382 c 0.48171,-0.49701 0.94789,-0.90382 1.03559,-0.90382 z m 22.35833,0.92604 0.28835,2.64583 c 0.15852,1.45521 0.27404,2.66953 0.25684,2.69803 -0.0172,0.0285 -0.18138,-0.0411 -0.36484,-0.15451 -0.23952,-0.14802 -0.31183,-0.90875 -0.25683,-2.69751 z m -13.37334,0.0367 c 0.15448,-0.0385 0.27646,0.0581 0.27646,0.31212 0,0.10193 -0.23497,0.3326 -0.52244,0.51212 -0.48839,0.30501 -0.50314,0.28358 -0.22583,-0.32505 0.1306,-0.28664 0.31732,-0.46064 0.47181,-0.49919 z m 6.55618,0.41444 c 0.0328,0.0179 0.0409,0.17202 0.0476,0.47491 0.008,0.3638 -0.10078,0.84005 -0.24185,1.05833 -0.21173,0.32757 -0.25384,0.30446 -0.24184,-0.13229 0.008,-0.29104 0.11678,-0.76729 0.24184,-1.05833 0.10412,-0.24232 0.16151,-0.36054 0.1943,-0.34262 z m -58.9349,0.0801 c 0.14999,-0.0927 0.19427,0.0136 0.10387,0.24908 -0.17589,0.45837 -0.36535,0.54182 -0.36535,0.16123 0,-0.13693 0.11763,-0.32141 0.26148,-0.41031 z m 13.68237,1.00563 c 0.0311,0.0239 0.0401,0.22731 0.0527,0.63045 0.0145,0.46436 -0.0927,0.91779 -0.23823,1.00769 -0.30427,0.18804 -0.30427,-0.24056 0,-1.19063 0.10116,-0.31584 0.15441,-0.4714 0.18552,-0.44751 z m -32.594387,0.20102 c 0.0527,0.0676 0.021,0.22007 -0.10956,0.46405 -0.48312,0.90273 -3.86142,3.8771 -7.43779,6.54844 -5.6057,4.18713 -5.66827,4.09061 -0.37827,-0.58446 2.11808,-1.87186 4.62096,-4.08802 5.56194,-4.92477 1.28766,-1.14502 2.20562,-1.70605 2.36368,-1.50326 z m 43.405097,0.29197 c 0.107,-0.0977 0.12047,0.11988 0.03,0.48369 -0.0905,0.3638 -0.30764,1.55442 -0.48214,2.64583 -0.32534,2.03469 -0.58174,2.68337 -0.81804,2.06758 -0.14765,-0.38477 0.95915,-4.91325 1.27021,-5.1971 z m 22.80222,0.21911 c 0.5992,0 0.76951,0.2718 0.39895,0.63665 -0.10914,0.10746 -0.33039,0.57361 -0.49196,1.03611 l -0.29404,0.84078 -0.1049,-1.25677 c -0.0969,-1.15917 -0.0589,-1.25677 0.49195,-1.25677 z m -78.099617,1.38338 c 0.0887,0.0887 -0.11694,0.30421 -0.45682,0.47852 -0.59078,0.30298 -0.59786,0.2959 -0.16123,-0.16123 0.25119,-0.26303 0.52935,-0.40599 0.61805,-0.31729 z m 20.40806,1.14308 c 0.0738,0.0535 0.14695,0.17647 0.21084,0.37775 0.0971,0.30612 -0.007,0.77976 -0.24547,1.12086 -0.40782,0.5819 -0.41393,0.57642 -0.41393,-0.37827 0,-0.81969 0.22717,-1.28088 0.44856,-1.12034 z m -17.29146,0.42426 c 0.58387,0.12698 -9.37767,8.95553 -10.1048,8.95553 -0.14338,0 -0.83627,0.28924 -1.53945,0.64234 -0.70317,0.35308 -2.88582,1.12702 -4.85035,1.71979 -1.96452,0.59277 -3.66117,1.07743 -3.77031,1.07745 -0.10914,2e-5 -0.19844,-0.28115 -0.19844,-0.62477 0,-0.52605 0.10602,-0.60457 0.67076,-0.49661 0.70189,0.13417 1.71049,-0.53605 1.71049,-1.13688 0,-0.17845 0.55062,-0.46304 1.2237,-0.63252 1.71215,-0.43113 4.39972,-1.75379 8.56589,-4.21576 3.25586,-1.92404 5.29563,-3.29357 7.17579,-4.81831 0.38129,-0.30922 0.88366,-0.52096 1.11672,-0.47026 z m 40.713277,2.07636 c 0.49974,0 0.53352,0.11648 0.40153,1.39526 -0.0792,0.76724 -0.31474,1.80904 -0.52348,2.31511 -0.36766,0.89133 -0.38622,0.90038 -0.5824,0.29404 -0.1114,-0.34426 -0.12068,-1.38606 -0.0212,-2.31511 0.1575,-1.47074 0.25091,-1.6893 0.72554,-1.6893 z m 40.13399,0.23203 c 0.0303,0.12882 -0.13038,0.62311 -0.50953,1.36632 -0.49921,0.97852 -0.8046,1.31199 -0.7767,0.84905 0.007,-0.10914 0.29892,-0.73423 0.64957,-1.38907 0.3849,-0.71879 0.60636,-0.95513 0.63666,-0.8263 z m 6.64352,0.74776 c 0.25117,-0.29506 1.31878,2.36774 1.31878,3.2892 0,0.88475 -0.40096,1.01322 -0.61443,0.19689 -0.1196,-0.45733 -0.29897,-0.53952 -0.9679,-0.44132 -0.57716,0.0847 -0.7843,0.0239 -0.6966,-0.20464 0.0686,-0.17885 0.27226,-0.8433 0.45269,-1.47691 0.18043,-0.63361 0.40876,-1.24722 0.50746,-1.36322 z m 6.08128,0.22065 0.65939,0.96997 c 0.50037,0.73632 0.60492,1.11675 0.4346,1.57717 -0.22109,0.59765 -0.23049,0.59429 -0.65887,-0.2341 -0.23918,-0.46251 -0.43512,-1.17235 -0.43512,-1.57716 z m -78.448957,0.37052 c 0.0376,-0.0119 0.0874,0.0422 0.15141,0.14883 0.17467,0.29104 0.54674,0.78256 0.82631,1.09193 0.56542,0.62566 1.26314,2.95665 1.26814,4.2354 0.002,0.45623 -0.1937,1.43849 -0.43408,2.18281 -0.24039,0.74431 -0.51967,1.3534 -0.62064,1.3534 -0.34475,0 -1.08674,-4.09619 -1.22214,-6.74687 -0.0817,-1.59904 -0.0818,-2.22985 0.031,-2.2655 z m 4.79403,0.0749 c 0.0631,-0.0903 0.0991,0.0684 0.0966,0.493 -0.002,0.35168 -0.12098,0.81783 -0.26407,1.03611 -0.183,0.27922 -0.20998,0.12235 -0.0904,-0.52917 0.10469,-0.57054 0.1948,-0.90964 0.25787,-0.99994 z m 24.629497,1.62368 c 0.048,0.0183 0.0775,0.0662 0.0775,0.13901 0,0.14552 -0.11906,0.33798 -0.26458,0.42788 -0.14552,0.0899 -0.26458,0.0447 -0.26458,-0.10077 0,-0.14552 0.11906,-0.3385 0.26458,-0.4284 0.0728,-0.045 0.13911,-0.056 0.18707,-0.0377 z m 37.11608,0.0398 c 0.14999,-0.0927 0.19427,0.0136 0.10387,0.24908 -0.17589,0.45837 -0.36535,0.54233 -0.36535,0.16175 0,-0.13693 0.11763,-0.32193 0.26148,-0.41083 z m -10.19989,2.27428 c 0.0704,0.0704 0.0592,0.39104 -0.0248,0.7121 -0.16544,0.63268 -0.48329,0.75405 -0.76791,0.29352 -0.18294,-0.296 0.55995,-1.23839 0.79272,-1.00562 z m 32.40784,0.36949 c 0.022,1.3131 -0.91166,5.32081 -2.19832,9.43766 -1.15544,3.69698 -2.66846,7.4467 -2.43758,6.04046 0.0597,-0.36381 0.47463,-1.61073 0.92243,-2.77141 1.12646,-2.91972 2.33942,-7.08325 3.07785,-10.56576 0.34225,-1.61408 0.62862,-2.57751 0.63562,-2.14095 z m -5.47202,0.58807 c 0.0838,-0.0801 0.11009,0.1148 0.14934,0.51728 0.0463,0.47452 -0.15359,1.30173 -0.45888,1.90015 -0.63746,1.24953 -1.23652,1.75827 -0.93948,0.79788 0.1069,-0.34565 0.44641,-1.28322 0.75499,-2.08359 0.2687,-0.69691 0.41026,-1.05163 0.49403,-1.13172 z m -7.31997,0.86713 c 0.69711,0 0.65316,0.24978 -0.24339,1.38907 -0.35583,0.45218 -1.76114,0.66127 -1.76114,0.262 0,-0.49731 1.40075,-1.65107 2.00453,-1.65107 z m -8.72401,0.64751 c 0.0766,-0.0388 0.0976,0.0594 0.0951,0.27854 -0.004,0.29104 -0.2174,1.47411 -0.4749,2.62929 -0.46506,2.08635 -0.47018,2.09493 -0.80409,1.28881 -0.393,-0.94878 -0.0981,-2.37506 0.75551,-3.65352 0.21952,-0.32876 0.35179,-0.50437 0.4284,-0.54312 z M 53.449963,148.272 c 0.0678,0.0427 0.0899,0.14448 0.0899,0.29456 0,0.19866 0.24688,0.67503 0.5488,1.05885 0.41025,0.52155 0.46038,0.72343 0.19844,0.79943 -0.19278,0.0559 -1.83865,0.5861 -3.65766,1.17823 -3.74592,1.21936 -3.75895,1.28291 0.37052,-1.8247 1.63525,-1.23059 2.2467,-1.63448 2.44998,-1.50637 z m 109.098247,0.72709 c 0.14553,0 0.26458,0.35718 0.26458,0.79375 0,0.43656 -0.11905,0.79375 -0.26458,0.79375 -0.14552,0 -0.26458,-0.35719 -0.26458,-0.79375 0,-0.43657 0.11906,-0.79375 0.26458,-0.79375 z m -50.71887,0.68833 c 0.0242,-0.0599 0.0574,-0.0517 0.0941,0.0393 0.0734,0.1819 0.0734,0.47956 0,0.66146 -0.0735,0.1819 -0.13332,0.0331 -0.13332,-0.33073 0,-0.18191 0.0151,-0.31006 0.0393,-0.37 z m -6.70605,0.90796 c 0.10992,-0.034 0.27144,0.0359 0.39584,0.23719 0.0838,0.13546 0.0438,0.31333 -0.0889,0.39533 -0.13264,0.082 -0.30934,-0.0285 -0.39274,-0.24598 -0.0823,-0.21433 -0.0241,-0.35254 0.0858,-0.38654 z m 43.54566,0.0232 c 0.0128,0.11015 -0.007,0.3642 -0.0599,0.76171 -0.0866,0.65484 -0.2002,1.2401 -0.2527,1.3007 -0.19903,0.22983 -0.048,-1.45684 0.1757,-1.96216 0.0782,-0.17667 0.12414,-0.2104 0.13694,-0.10025 z m -29.57287,0.0837 c 0.0887,0.0887 -0.0538,0.36685 -0.31677,0.61805 -0.45713,0.43662 -0.46421,0.42953 -0.16123,-0.16123 0.17431,-0.33989 0.3893,-0.54552 0.478,-0.45682 z m 57.73963,0.0517 c 0,0.60855 -1.93731,6.10155 -2.64377,7.49619 -0.40809,0.80562 -1.11677,1.9345 -1.57509,2.50889 -0.5472,0.6858 -0.80618,1.27624 -0.75448,1.71979 0.067,0.57491 0.21638,0.6789 1.00459,0.6997 0.64335,0.017 0.90018,0.13594 0.84078,0.38912 -0.24055,1.0252 -0.47661,1.03377 -1.41594,0.0512 -1.66894,-1.74585 -1.69349,-1.96262 -0.37155,-3.28455 1.82987,-1.82988 2.21697,-4.25939 0.96015,-6.02444 -0.47753,-0.67063 -0.49853,-0.81869 -0.16588,-1.15135 0.20998,-0.20998 0.85739,-0.45787 1.43867,-0.55087 0.786,-0.12568 1.26504,-0.42147 1.86965,-1.15497 0.44713,-0.54245 0.81287,-0.85708 0.81287,-0.69867 z m -79.962557,0.57154 c 0.13498,-0.0187 0.24767,0.0903 0.44752,0.3111 0.35043,0.38722 0.3865,0.81432 0.21446,2.55178 l -0.20671,2.08669 -0.69453,-0.92604 c -1.44945,-1.93296 -1.49541,-2.41599 -0.34107,-3.57032 0.28831,-0.28831 0.44535,-0.43455 0.58033,-0.45321 z m 38.137207,1.24541 0.0109,0.99012 c 0.007,0.64971 -0.18785,1.2183 -0.56637,1.65364 -1.16268,1.3372 -1.09494,0.40495 0.1359,-1.86862 z m 29.33102,0.40049 0.42633,0.89813 c 0.23443,0.49403 0.42631,1.05894 0.42633,1.25522 2e-5,0.19629 0.29573,1.30908 0.65733,2.47324 0.3616,1.16417 0.65946,2.43718 0.66146,2.82877 0.002,0.39159 -0.11493,0.7855 -0.26045,0.8754 -0.14552,0.09 -0.26459,0.12501 -0.26459,0.0775 0,-0.71404 -1.96729,-6.45328 -2.29391,-6.6921 -0.41398,-0.30272 -0.40672,-0.37596 0.10077,-1.02112 z m -54.48039,0.13849 c 0.13086,0.068 0.29422,0.38489 0.42374,0.91622 0.12217,0.5012 0.0213,0.74809 -0.41651,1.01855 -0.51306,0.31694 -0.55875,0.30706 -0.40721,-0.0879 0.0939,-0.24459 0.17053,-0.81593 0.17053,-1.26969 0,-0.46406 0.0986,-0.6452 0.22945,-0.57723 z m 8.44496,1.05988 c 0.0801,0.0227 0.0844,0.19616 -0.0346,0.50643 -0.0862,0.22455 -0.28018,0.40825 -0.4315,0.40825 -0.17416,0 -0.15687,-0.18997 0.0475,-0.51728 0.18254,-0.29228 0.33845,-0.42011 0.41858,-0.3974 z m 21.92269,0.27492 c 0.0809,-0.0746 0.14577,-0.0171 0.21601,0.15297 0.0998,0.24152 -0.009,0.80707 -0.24133,1.25677 -0.72119,1.39462 -0.90875,0.89105 -0.2868,-0.76998 0.13424,-0.35852 0.2312,-0.56516 0.31212,-0.63976 z m 8.10287,0.18914 c 0.0677,-0.0308 0.19994,0.0845 0.45837,0.31833 0.29104,0.26339 0.52703,0.66913 0.52503,0.90123 -0.002,0.23211 -0.10851,0.58651 -0.23616,0.78807 -0.18615,0.29394 -0.29001,0.25828 -0.52503,-0.18087 -0.16116,-0.30114 -0.29301,-0.87119 -0.29301,-1.26711 0,-0.35155 0.003,-0.52883 0.0708,-0.55965 z m 11.59154,0.90175 c 0.15267,0.026 0.23457,0.31431 0.19327,0.85628 -0.0438,0.57455 -0.19016,0.74311 -0.64441,0.74311 -0.57369,0 -0.57787,-0.0209 -0.16743,-0.8816 0.24212,-0.50774 0.4659,-0.74382 0.61857,-0.71779 z m -33.16077,0.36432 c 0.0426,0.0303 0.0672,0.0927 0.0672,0.19017 0,0.11642 -0.14267,0.35454 -0.31729,0.52917 -0.50585,0.50584 -0.77677,0.36746 -0.41496,-0.21188 0.25038,-0.40092 0.53734,-0.59827 0.66507,-0.50746 z m 2.18385,2.58847 -0.0103,0.74518 c -0.007,0.51163 -0.39555,1.16086 -1.23765,2.06861 -0.67499,0.72759 -1.15542,1.12731 -1.06712,0.8878 0.0883,-0.23952 0.30901,-0.93086 0.49041,-1.53634 0.19616,-0.65472 0.63298,-1.317 1.07746,-1.6335 z m 4.11654,0.0357 c 0.0642,0 0.11679,0.11906 0.11679,0.26458 0,0.14552 -0.12598,0.26459 -0.28009,0.26459 -0.15408,0 -0.20668,-0.11907 -0.11678,-0.26459 0.0899,-0.14552 0.21588,-0.26458 0.28008,-0.26458 z m -33.648587,0.35398 c 0.017,-0.0235 0.35534,0.0195 0.751377,0.0956 l 0.71985,0.13849 -0.79892,1.16117 c -0.439417,0.63867 -0.838347,1.16117 -0.886247,1.16117 -0.075,0 0.12914,-2.43918 0.21394,-2.55644 z m 42.907457,0.81339 c 0.0728,0.0259 0.20136,0.12949 0.38395,0.31006 0.42758,0.42284 0.581,0.9618 0.6594,2.3151 0.0562,0.97018 0.0626,1.76372 0.014,1.76372 -0.0486,0 -0.2894,-0.86321 -0.53537,-1.91823 -0.24596,-1.05503 -0.50282,-2.09682 -0.57102,-2.3151 -0.0406,-0.13003 -0.0238,-0.18148 0.0491,-0.15555 z m 13.90768,0.42013 c 0.12855,0 0.23357,0.16525 0.23357,0.3669 0,0.20164 -0.17793,0.70766 -0.39532,1.12448 -0.31816,0.61008 -0.39526,0.65439 -0.39326,0.22841 0.003,-0.81482 0.29522,-1.71979 0.55501,-1.71979 z m -8.49768,0.26458 c 0.14552,0 0.26459,0.23812 0.26459,0.52917 0,0.29104 -0.11907,0.52917 -0.26459,0.52917 -0.14552,0 -0.26458,-0.23813 -0.26458,-0.52917 0,-0.29105 0.11906,-0.52917 0.26458,-0.52917 z m -42.33333,0.52917 c 0.14552,0 0.26458,0.23813 0.26458,0.52917 0,0.29104 -0.11906,0.52916 -0.26458,0.52916 -0.14552,0 -0.26458,-0.23812 -0.26458,-0.52916 0,-0.29104 0.11906,-0.52917 0.26458,-0.52917 z m -3.50573,1.56425 0.56224,0.95291 c 0.66618,1.12909 0.67507,1.30913 0.18294,3.66127 -0.20855,0.99672 -0.42448,1.85747 -0.48008,1.91307 -0.0556,0.0556 -0.60782,-0.80426 -1.2268,-1.911 l -1.124987,-2.01228 0.638717,-0.69505 c 0.35151,-0.38223 0.82143,-0.96788 1.04386,-1.30173 z m 16.99948,0.46663 c 0,0.14552 -0.64952,0.96852 -1.44332,1.82883 -0.79381,0.8603 -1.44332,1.44519 -1.44332,1.29967 0,-0.14552 0.64951,-0.96853 1.44332,-1.82883 0.7938,-0.8603 1.44332,-1.4452 1.44332,-1.29967 z m 40.96959,0.3266 c 0.17355,-0.0634 0.55594,0.15888 1.1467,0.66456 0.60844,0.5208 1.19989,0.94671 1.31465,0.94671 0.1147,0 0.14486,0.1668 0.0667,0.37052 -0.0782,0.20371 -0.2299,0.94786 -0.33744,1.65365 l -0.19586,1.28312 -1.12654,-2.21123 c -0.86745,-1.70275 -1.15742,-2.60173 -0.86817,-2.70733 z m -27.67014,0.6258 c 0.14821,0.066 0.65781,1.90353 0.69815,2.63912 0.014,0.25466 -0.0773,0.46302 -0.20309,0.46302 -0.23407,0 -0.59022,-2.01033 -0.53382,-3.01326 0.004,-0.0712 0.0176,-0.0983 0.0388,-0.0889 z m 13.76453,0.2837 c 0.041,-0.0409 0.11349,0.0962 0.25012,0.37983 0.21514,0.44655 0.21081,0.68423 -0.0176,0.9126 -0.23546,0.23544 -0.30464,0.0922 -0.29094,-0.60358 0.008,-0.42862 0.0174,-0.64789 0.0584,-0.68885 z m 5.68751,0.33022 c 0.13114,0.0715 0.31709,0.44189 0.5364,1.09915 0.15776,0.47294 0.20337,0.85073 0.1018,0.83923 -0.62336,-0.0705 -0.84594,-0.39841 -0.84594,-1.24489 0,-0.53764 0.0766,-0.76501 0.20774,-0.69349 z m 4.62866,0.0749 c 0.12734,0.12766 0.18956,0.57428 0.13746,0.99219 -0.0872,0.69944 -0.1056,0.68109 -0.23203,-0.23203 -0.0787,-0.56879 -0.0385,-0.89325 0.0946,-0.76016 z m -29.2499,1.09037 c 0.0551,0 -1.1792,2.54016 -1.36374,2.80655 -0.0107,0.0155 -0.43548,0.10754 -0.94361,0.20464 l -0.92397,0.17621 1.57716,-1.5937 c 0.86738,-0.87653 1.61186,-1.5937 1.65416,-1.5937 z m -6.29574,0.66146 0.009,1.12448 c 0.007,0.95103 -0.0728,1.12448 -0.52038,1.12448 -0.69073,0 -0.69486,-0.80067 -0.009,-1.62419 z m -15.23989,0.0124 c 0.0688,-0.009 0.17041,0.0764 0.34571,0.25167 0.21741,0.21738 0.3572,0.68197 0.3111,1.03249 l -0.0837,0.63717 -0.41031,-0.56999 c -0.22571,-0.31347 -0.36611,-0.77807 -0.31161,-1.0325 0.0439,-0.20519 0.0801,-0.30946 0.14883,-0.31884 z m 24.43933,1.13327 c 0.0772,0.0544 0.0397,0.3783 -0.17053,0.9312 -0.1467,0.38585 -0.38706,0.70125 -0.53382,0.70125 -0.14677,0 -0.0634,-0.42627 0.185,-0.94723 0.25023,-0.52471 0.44217,-0.73959 0.51935,-0.68522 z m 23.19032,0.68419 c 0.17329,0.0306 0.47119,0.58382 1.05265,1.89394 1.02033,2.29892 1.1571,2.98754 0.44183,2.22571 -2.52962,-2.69433 -2.7258,-2.97347 -2.26963,-3.22875 0.24815,-0.13888 0.53524,-0.47908 0.63769,-0.75602 0.0359,-0.0972 0.0797,-0.14507 0.13746,-0.13488 z m -10.87479,0.76688 c 0.0462,-0.0397 0.11851,-0.004 0.22324,0.10025 0.15914,0.15917 0.24844,0.49167 0.19844,0.73846 -0.11782,0.58126 -0.48783,0.21011 -0.48783,-0.48938 0,-0.1947 0.02,-0.30968 0.0661,-0.34933 z m -30.78727,0.15451 c 0.0511,-0.005 0.11386,0.0234 0.185,0.0946 0.0856,0.0856 0.1119,0.37319 0.0584,0.63924 -0.0927,0.46042 -0.10666,0.45974 -0.29404,-0.0171 -0.14981,-0.38121 -0.10253,-0.70088 0.0506,-0.71675 z m 34.51004,0.19947 c 0.0403,-0.0835 0.11219,0.0291 0.23823,0.29042 0.20642,0.42801 0.20642,0.76262 0,1.19063 -0.25211,0.52269 -0.28732,0.45006 -0.28732,-0.59531 0,-0.52269 0.009,-0.80224 0.0491,-0.88574 z m 12.21838,0.75345 0.45061,0.66249 c 1.19711,1.7593 2.58199,9.58345 3.11403,17.59376 0.14498,2.1828 0.26513,10.04094 0.26613,17.4625 0.003,14.18772 -0.11219,16.02287 -1.28416,20.5052 -0.28536,1.0914 -0.9978,3.29407 -1.58337,4.8948 l -1.06505,2.91041 -0.0212,-4.7625 c -0.0627,-14.09233 -1.18694,-25.39963 -3.59978,-36.20709 -1.13645,-5.09031 -1.16048,-5.29245 -0.79272,-6.61458 0.42864,-1.54105 0.90173,-5.10431 0.98133,-7.39025 0.0466,-1.33892 0.13511,-1.56891 0.71107,-1.85208 0.54499,-0.26795 0.86523,-0.63585 1.27899,-1.46916 0.0239,-0.0482 0.30306,0.051 0.62012,0.22065 0.70991,0.37993 1.73399,0.15401 1.95906,-0.43253 0.16081,-0.4191 -0.39309,-1.52871 -1.03973,-2.08204 -0.20698,-0.17709 -0.25756,-0.78953 -0.15245,-1.85208 z m -53.37504,0.48472 c 0.53461,0.0158 0.55464,0.31312 0.0351,0.8661 -0.72069,0.76714 -0.9312,0.78725 -1.28726,0.12195 -0.38097,-0.71185 -0.37273,-0.72498 0.54725,-0.90898 0.29164,-0.0583 0.52667,-0.0844 0.70487,-0.0791 z m 34.32504,0.30903 0.86713,1.29397 c 0.47682,0.71161 0.83405,1.31025 0.79375,1.33015 -0.0403,0.02 -0.78775,-0.20523 -1.66088,-0.50022 l -1.5875,-0.5364 0.79375,-0.79375 z m -18.00666,0.69091 c 0.0883,0.0883 -0.0765,0.4452 -0.36638,0.79323 -0.28984,0.34764 -0.53089,0.50652 -0.53589,0.35244 -0.0129,-0.41021 0.71436,-1.33358 0.90227,-1.14567 z m 9.35292,0.38137 c 0.0404,0.0654 0.022,0.20711 -0.0419,0.44545 -0.0883,0.32959 -0.16233,0.98589 -0.16433,1.45883 -0.002,0.47294 -0.12268,0.85989 -0.2682,0.85989 -0.14552,0 -0.26458,-0.58246 -0.26458,-1.29449 0,-0.94948 0.11446,-1.33867 0.42891,-1.45934 0.17055,-0.0654 0.26968,-0.0758 0.31006,-0.0103 z m -21.43383,0.15503 c 0.14143,-0.0496 0.35835,0.0946 0.66042,0.4284 0.38857,0.42936 0.37185,0.4881 -0.22324,0.76894 -0.60453,0.2853 -0.64441,0.25641 -0.64441,-0.46508 0,-0.43962 0.0658,-0.68271 0.20723,-0.73226 z m 39.77018,0.50436 c 0.10753,0.0728 0.26568,0.32938 0.59014,0.84801 0.47378,0.75733 0.44138,0.7862 -0.56482,0.50281 -0.62832,-0.17696 -0.69463,-0.41019 -0.31109,-1.09554 0.12132,-0.21678 0.17824,-0.32809 0.28577,-0.25528 z m -25.38967,0.89866 c 0.0963,-0.0459 0.17406,0.0657 0.30283,0.30127 0.15283,0.2796 0.40385,0.59073 0.55759,0.69195 0.1539,0.10123 0.22311,0.22081 0.15451,0.26561 -0.0685,0.0448 -0.54125,0.37017 -1.05058,0.72296 -0.50932,0.35279 -1.28323,0.8964 -1.71979,1.20819 l -0.79375,0.56689 -0.58601,-0.61391 -0.5855,-0.61392 0.5855,-0.001 c 0.8862,-0.001 2.22655,-0.92995 2.72024,-1.88464 0.20389,-0.39428 0.31867,-0.59744 0.41496,-0.64337 z m -17.40048,0.3483 c 0.0887,0.0863 0.17163,0.32596 0.29404,0.76222 0.16431,0.58566 0.52962,1.13554 0.86506,1.30277 0.44379,0.22126 0.50728,0.36243 0.27027,0.59944 -0.48649,0.48649 -0.6362,0.38999 -1.38958,-0.89555 -0.58706,-1.00174 -0.64945,-1.27426 -0.36846,-1.61282 0.14555,-0.17538 0.24002,-0.24238 0.32867,-0.15606 z m 28.00914,1.96215 c 0.0425,-0.0216 0.12297,0.11609 0.27905,0.39377 0.45073,0.80188 5.24023,6.37224 7.91735,9.20823 l 2.23862,2.37143 -1.13068,2.39107 c -0.62207,1.31496 -1.36604,3.28351 -1.65313,4.37492 -0.77549,2.94815 -0.93084,9.76991 -0.45165,19.84375 0.21804,4.5839 0.4665,10.00126 0.5519,12.03855 0.19392,4.62521 0.86409,15.36431 1.08573,17.39635 0.0913,0.83674 0.11597,1.52135 0.0548,1.52135 -0.1638,0 -1.11414,-1.97705 -6.23114,-12.96458 -5.94803,-12.77197 -11.54682,-23.96869 -15.79904,-31.59497 -3.62071,-6.49369 -11.27011,-19.67471 -12.09021,-20.83335 -0.66239,-0.93582 -0.64161,-1.03423 0.39377,-1.86036 0.81848,-0.65305 0.93691,-0.67878 1.45521,-0.31574 0.50221,0.35173 0.56446,0.64775 0.56534,2.69493 8e-4,1.86568 0.10612,2.47502 0.55707,3.22616 1.38245,2.30268 2.29328,2.63393 3.55947,1.29449 0.94346,-0.99804 6.46001,-5.46326 8.88577,-7.19232 1.50867,-1.07537 1.85256,-1.21788 2.41897,-1.00253 0.73888,0.28092 1.6138,0.12385 2.50321,-0.44958 0.5596,-0.36078 0.59531,-0.34502 0.59531,0.262 0,0.90056 1.0369,1.79627 2.07946,1.79627 1.07709,0 2.15017,-1.01081 2.16317,-2.03812 0.005,-0.35925 0.009,-0.54013 0.0517,-0.56172 z m -20.19877,2.01125 c 0.0471,-0.017 0.10987,0.0166 0.19069,0.0837 0.24004,0.19926 0.92937,0.26487 1.89394,0.18087 0.83415,-0.0726 1.90681,0.002 2.38383,0.16588 l 0.86765,0.29817 -2.52904,2.04794 c -1.52568,1.23548 -2.56958,1.91588 -2.63188,1.71566 -0.0568,-0.18252 -0.16145,-1.31965 -0.23255,-2.52698 -0.0831,-1.40993 -0.0838,-1.9143 0.0574,-1.96525 z m -4.27984,8.45219 c 0.16125,0.0548 0.45659,0.53036 0.99219,1.46296 0.39698,0.69122 0.62113,1.2393 0.49816,1.2175 -0.12297,-0.0218 -0.55119,-0.0893 -0.95136,-0.14986 -0.68491,-0.10376 -0.72761,-0.19003 -0.72761,-1.46865 0,-0.75057 0.0274,-1.11675 0.18862,-1.06195 z m 42.55296,13.31909 c 0.37239,-0.28462 -0.19483,0.89265 -1.9296,3.70571 -1.12766,1.8286 -3.00303,4.95238 -4.16719,6.9417 -1.16417,1.98932 -2.18543,3.61845 -2.26963,3.62045 -0.0842,0.002 -0.17935,-0.64363 -0.21135,-1.43505 -0.0493,-1.21931 0.0253,-1.48379 0.49041,-1.73272 0.30191,-0.16158 2.27224,-2.87734 4.37854,-6.03477 2.0241,-3.03421 3.33643,-4.78071 3.70882,-5.06532 z m 2.8329,18.78283 c 0.44296,-0.0292 0.179,1.77435 -0.32659,2.2319 -0.28867,0.26124 -0.86795,1.08319 -1.28778,1.82677 -1.3573,2.40394 -5.6586,8.78075 -5.46272,8.09873 0.48912,-1.70307 2.483,-5.47184 4.57595,-8.64909 1.26645,-1.92256 2.392,-3.50131 2.50114,-3.50831 z m 0.44907,6.99802 0.007,1.20716 c 0.006,1.02858 -0.10638,1.29096 -0.75912,1.77354 -0.42127,0.31146 -1.56688,1.85176 -2.54558,3.42305 -0.97871,1.57129 -1.70269,2.6306 -1.60869,2.35437 0.094,-0.27624 0.93125,-1.76452 1.86035,-3.30729 0.9291,-1.54278 1.99468,-3.40031 2.36781,-4.12791 z m -10.37353,4.43281 c 0.22119,-0.0736 0.21934,0.11251 -0.006,0.71003 -0.1682,0.44561 -0.38834,0.81029 -0.48938,0.81029 -0.29427,0 0.16542,-1.41027 0.49558,-1.52032 z m 10.31927,4.25503 c 0.0353,0.032 0.0438,0.23657 0.0517,0.63872 0.017,0.86946 -0.0945,1.05843 -0.36535,0.62012 -0.0816,-0.13208 -0.0363,-0.51903 0.10025,-0.85989 0.11615,-0.28984 0.17815,-0.4309 0.21343,-0.39895 z m -9.99422,3.3507 c 0.14099,0 0.18767,0.1786 0.10387,0.39688 -0.0838,0.21828 -0.19912,0.39687 -0.25632,0.39687 -0.0572,0 -0.10387,-0.17859 -0.10387,-0.39687 0,-0.21828 0.11537,-0.39688 0.25632,-0.39688 z m 2.14612,8.67338 -0.58291,1.20044 c -0.55481,1.14196 -0.56157,1.23244 -0.13694,1.88051 0.24541,0.37453 0.68176,0.68109 0.96945,0.68109 0.63027,0 0.63734,0.0696 0.1111,1.08727 -0.22655,0.43808 -0.37533,1.23607 -0.33073,1.77302 0.0711,0.85474 0.17995,0.99264 0.87488,1.10846 l 0.79375,0.13229 -0.41393,0.82838 -0.41392,0.82837 -0.56638,-1.09296 c -0.55519,-1.07154 -1.92739,-5.96409 -1.89859,-6.76961 0.008,-0.22486 0.37026,-0.68969 0.8046,-1.03301 z m 26.00513,0.32246 c -4.14797,0 -6.47382,2.32516 -6.54792,6.54533 -0.0404,2.29946 0.82774,3.9449 2.54093,4.81521 4.69759,2.38641 12.14722,-3.76791 9.8764,-8.15919 -0.89997,-1.74034 -3.57842,-3.20135 -5.86941,-3.20135 z m -21.13049,1.05833 c 0.0659,0 -0.0191,0.32743 -0.18914,0.7276 -0.33463,0.78753 -0.73794,1.35148 -0.73794,1.03198 0,-0.27713 0.78105,-1.75958 0.92708,-1.75958 z m 20.94549,1.5875 c 2.364,0 4.0566,1.0568 4.0566,2.53266 0,0.87354 -1.43661,2.64839 -2.78226,3.437 -0.66953,0.39237 -1.74088,0.77229 -2.38022,0.84439 -1.03012,0.11611 -1.25375,0.0392 -1.96835,-0.67541 -0.99412,-0.99413 -1.1166,-2.6183 -0.27751,-3.68504 0.29104,-0.37 0.52917,-0.82683 0.52917,-1.01493 0,-0.7492 1.35288,-1.43867 2.82257,-1.43867 z" /></g></svg>